<svg width="76" height="77" viewBox="0 0 76 77" fill="none" xmlns="http://www.w3.org/2000/svg">
<path d="M70 38.3291C70 20.656 55.6732 6.3291 38 6.3291C20.3269 6.3291 6 20.656 6 38.3291C6 56.0023 20.3269 70.3291 38 70.3291C55.6733 70.3291 70 56.0024 70 38.3291ZM35 18.8848C35 17.2279 36.3431 15.8848 38 15.8848C39.6569 15.8848 41 17.2279 41 18.8848V33.0303L46.1787 29.9229C47.5994 29.0706 49.4425 29.5315 50.2949 30.9521C51.1474 32.3729 50.6864 34.2159 49.2656 35.0684L39.5439 40.9014C38.6172 41.4574 37.462 41.472 36.5215 40.9395C35.5812 40.4069 35 39.4098 35 38.3291V18.8848ZM76 38.3291C76 59.3161 58.987 76.3291 38 76.3291C17.0132 76.3291 0 59.3161 0 38.3291C0 17.3423 17.0132 0.329102 38 0.329102C58.987 0.329102 76 17.3423 76 38.3291Z" fill="#498EEC"/>
</svg>
