<svg width="76" height="77" viewBox="0 0 76 77" fill="none" xmlns="http://www.w3.org/2000/svg">
<path d="M54.4443 46.1064V41.3291H21.5557V46.1064C21.5557 47.7633 20.2125 49.1064 18.5557 49.1064C16.8988 49.1064 15.5557 47.7633 15.5557 46.1064V41.3291H6V54.6621C6 57.9787 6.00276 60.2861 6.14942 62.0811C6.29317 63.8403 6.56006 64.8422 6.94434 65.5967L7.10645 65.8994C7.94268 67.3917 9.20366 68.6059 10.7324 69.3848L11.0273 69.5234C11.7485 69.8341 12.7082 70.0538 14.248 70.1797C16.043 70.3263 18.3505 70.3291 21.667 70.3291H54.333C57.6496 70.3291 59.9571 70.3263 61.752 70.1797C63.5116 70.0359 64.514 69.7692 65.2686 69.3848L65.5703 69.2227C67.0625 68.3865 68.2768 67.1263 69.0557 65.5977L69.1943 65.3018C69.505 64.5804 69.7248 63.6207 69.8506 62.0811C69.9972 60.2862 70 57.9787 70 54.6621V41.3291H60.4443V46.1064C60.4443 47.7633 59.1012 49.1064 57.4443 49.1064C55.7875 49.1064 54.4443 47.7633 54.4443 46.1064ZM50.5557 14.9961C50.5557 13.1431 50.5537 11.9032 50.4883 10.9443C50.4406 10.2454 50.3646 9.81999 50.2793 9.5293L50.1924 9.27832C49.7378 8.18106 48.8916 7.29517 47.8232 6.78906L47.6064 6.69238C47.318 6.57297 46.872 6.46006 45.9404 6.39649C44.9816 6.33106 43.7417 6.3291 41.8887 6.3291H34.1113C32.2583 6.3291 31.0184 6.33106 30.0596 6.39649C29.3605 6.44419 28.9352 6.52013 28.6445 6.60547L28.3936 6.69238C27.2962 7.14697 26.4103 7.99314 25.9043 9.06153L25.8086 9.27832C25.6892 9.56654 25.5753 10.0124 25.5117 10.9443C25.4463 11.9032 25.4443 13.1431 25.4443 14.9961V15.8848H50.5557V14.9961ZM56.5557 15.8857C58.7737 15.8927 60.6502 15.9238 62.2402 16.0537C64.2382 16.217 66.0149 16.551 67.6641 17.3232L67.9922 17.4834L68.5029 17.7568C71.0286 19.1721 73.0832 21.3054 74.4014 23.8926L69.0557 26.6162C68.2248 24.9855 66.8982 23.6599 65.2676 22.8291C64.5131 22.4449 63.5109 22.1769 61.752 22.0332C59.957 21.8866 57.6496 21.8848 54.333 21.8848H21.667C18.3505 21.8848 16.043 21.8866 14.248 22.0332C12.7081 22.159 11.7485 22.3797 11.0273 22.6904L10.7324 22.8291C9.20368 23.608 7.94272 24.8222 7.10645 26.3145L6.94434 26.6172C6.56008 27.3715 6.29318 28.3734 6.14942 30.1328C6.03799 31.4966 6.01001 33.156 6.00293 35.3291H69.9971C69.99 33.156 69.962 31.4966 69.8506 30.1328C69.7068 28.3734 69.4399 27.3705 69.0557 26.6162L74.4014 23.8926C75.2886 25.6338 75.6569 27.5136 75.8311 29.6445C76.0023 31.7404 76 34.3343 76 37.5518V54.6621C76 57.8796 76.0023 60.4734 75.8311 62.5693C75.6678 64.5673 75.3338 66.344 74.5615 67.9932L74.4014 68.3213C73.0831 70.9086 71.0286 73.0419 68.5029 74.457L67.9922 74.7305C66.2509 75.6177 64.3712 75.986 62.2402 76.1602C60.1443 76.3314 57.5505 76.3291 54.333 76.3291H21.667C18.4496 76.3291 15.8557 76.3314 13.7598 76.1602C11.7619 75.9969 9.98503 75.6629 8.33594 74.8906L8.00781 74.7305C5.42066 73.4123 3.28728 71.3577 1.87207 68.832L1.59863 68.3213L1.43848 67.9932C0.666268 66.344 0.332188 64.5673 0.168947 62.5693C-0.0022936 60.4734 1.56427e-06 57.8796 1.56427e-06 54.6621V37.5518C1.56427e-06 34.3343 -0.00228126 31.7404 0.168947 29.6445C0.343054 27.5136 0.711439 25.6338 1.59863 23.8926L1.87207 23.3818C3.28724 20.8563 5.42065 18.8017 8.00781 17.4834L8.33594 17.3232C9.98505 16.551 11.7618 16.217 13.7598 16.0537C15.3499 15.9238 17.2263 15.8927 19.4443 15.8857V14.9961C19.4443 13.2253 19.4428 11.7466 19.5254 10.5361C19.6098 9.29875 19.792 8.12354 20.2647 6.98242L20.4814 6.49414C21.6229 4.08346 23.6217 2.175 26.0977 1.14942L26.5273 0.985354C27.5336 0.632668 28.5687 0.484031 29.6514 0.410158C30.8618 0.327579 32.3404 0.329103 34.1113 0.329103H41.8887C43.6596 0.329103 45.1382 0.327578 46.3486 0.410158C47.5861 0.494588 48.7612 0.676816 49.9023 1.14942L50.3916 1.36621C52.8016 2.50771 54.7098 4.50672 55.7354 6.98242L55.8994 7.41211C56.252 8.41835 56.4008 9.45341 56.4746 10.5361C56.5572 11.7465 56.5557 13.2252 56.5557 14.9961V15.8857Z" fill="#498EEC"/>
</svg>
