<svg width="21" height="24" viewBox="0 0 21 24" fill="none" xmlns="http://www.w3.org/2000/svg">
<path d="M15.1465 13.0171C15.3417 12.822 15.6583 12.822 15.8535 13.0171L20.8535 18.0171C21.0487 18.2123 21.0486 18.5288 20.8535 18.7241L15.8535 23.7241C15.6583 23.9193 15.3417 23.9193 15.1465 23.7241C14.9514 23.5288 14.9513 23.2123 15.1465 23.0171L19.293 18.8706H0.5C0.223858 18.8706 -2.98023e-08 18.6467 0 18.3706C0.000175155 18.0946 0.223966 17.8706 0.5 17.8706H19.293L15.1465 13.7241C14.9514 13.5288 14.9513 13.2123 15.1465 13.0171ZM5.14648 0.934044C5.34175 0.738782 5.65825 0.738782 5.85352 0.934044C6.04878 1.12931 6.04878 1.44581 5.85352 1.64108L1.70703 5.78756H20.5C20.7761 5.78756 21 6.01142 21 6.28756C21 6.5637 20.7761 6.78756 20.5 6.78756H1.70703L5.85352 10.934C6.04878 11.1293 6.04878 11.4458 5.85352 11.6411C5.65825 11.8363 5.34175 11.8363 5.14648 11.6411L0.146484 6.64108C-0.0487776 6.44581 -0.0487777 6.12931 0.146484 5.93404L5.14648 0.934044Z" fill="white"/>
</svg>
