<svg width="102" height="71" viewBox="0 0 102 71" fill="none" xmlns="http://www.w3.org/2000/svg">
<path d="M76.7459 0.329102L66.8889 10.1861L67.8052 11.1378C67.1524 11.665 66.4917 12.1794 65.8504 12.636C64.8153 13.3754 63.8217 13.9685 63.1482 14.2466C63.1047 14.266 62.9216 14.3174 62.5583 14.3158C61.9779 14.3221 61.007 14.1743 59.8175 13.9928C58.6231 13.8127 57.1942 13.6168 55.5836 13.615C54.1784 13.6103 52.629 13.7807 50.9974 14.229C49.3693 13.7823 47.8227 13.615 46.4211 13.6168C44.8088 13.6168 43.3799 13.8129 42.1854 13.9946C40.9959 14.176 40.0267 14.3241 39.4464 14.3176C39.0815 14.3208 38.8998 14.2662 38.8629 14.2484C38.1443 13.9542 37.0607 13.2983 35.9454 12.4866C35.3683 12.0671 34.78 11.6073 34.1964 11.1348L35.1111 10.1863L25.2541 0.329299L0.391556 26.0805L10.2485 35.9375L13.1338 32.9492L19.5026 38.5076C19.6809 39.5734 20.017 40.5796 20.4044 41.5347C20.6567 42.1424 20.9332 42.7273 21.2163 43.2771C20.6005 44.2964 20.2647 45.4602 20.2678 46.64C20.2662 47.8103 20.5877 49.0061 21.2484 50.0687C22.253 51.6842 23.8622 52.7001 25.5997 53.0216C25.6096 54.1709 25.9279 55.3428 26.5755 56.3845C27.8053 58.3618 29.9336 59.4579 32.1037 59.4546C32.1873 59.4546 32.2725 59.4417 32.3559 59.4386C32.4653 60.358 32.7675 61.2743 33.2851 62.107C34.5149 64.0841 36.6446 65.1805 38.8115 65.1771C39.027 65.1771 39.2409 65.1546 39.4577 65.1336C39.5605 65.9615 39.8355 66.7877 40.3001 67.5336C41.4206 69.3341 43.3591 70.3338 45.3313 70.3291C46.3954 70.3307 47.4853 70.0412 48.453 69.4401L51.4076 67.6014C51.9896 67.9774 52.6003 68.3085 53.2416 68.5785C54.436 69.0817 55.7268 69.3903 57.0691 69.3918C58.5415 69.3984 60.0959 68.9949 61.4332 68.0545C62.3045 67.447 63.0422 66.6141 63.6466 65.6322C63.7399 65.6353 63.8154 65.6516 63.9119 65.6531C64.5243 65.6531 65.1963 65.5614 65.8619 65.354C66.5321 65.15 67.1977 64.8444 67.9082 64.4379C69.6024 63.4831 70.6183 62.0781 71.1119 60.8742C71.2212 60.6107 71.2999 60.363 71.3707 60.1236C71.7807 59.9935 72.1729 59.8342 72.528 59.6286C73.8381 58.8746 74.6917 57.7286 75.2173 56.5776C75.7446 55.4152 75.9761 54.2081 75.9792 53.0477C75.9792 52.9334 75.9648 52.8225 75.9598 52.71C76.8166 52.3597 77.5864 51.8726 78.2424 51.2987C78.9143 50.7102 79.4785 50.0256 79.898 49.2443C80.3161 48.4664 80.5959 47.5758 80.5974 46.6002C80.599 45.9653 80.4688 45.2965 80.1843 44.6696C80.0925 44.4703 79.9625 44.2871 79.8435 44.1022C80.3436 43.2067 80.8529 42.1975 81.2708 41.1076C81.5843 40.2829 81.848 39.4182 81.9991 38.5098L88.6394 32.7149L91.7515 35.9379L101.608 26.0805L76.7459 0.329102ZM27.8198 48.0659L27.7055 48.1383C27.4082 48.3217 27.0962 48.4036 26.7748 48.4051C26.1783 48.402 25.606 48.111 25.2702 47.5693C25.0869 47.272 25.0033 46.9585 25.0033 46.6402C25.0064 46.0406 25.2959 45.4714 25.8359 45.1356L29.7405 42.7099C30.0378 42.5251 30.3498 42.4448 30.6679 42.4415C31.2675 42.4478 31.8366 42.734 32.1743 43.2789L34.1851 42.0299L32.1743 43.2804C32.3575 43.5762 32.4394 43.8879 32.4411 44.2064C32.4378 44.6243 32.2883 45.0231 32.0185 45.3445L28.6651 47.4278C28.3598 47.6174 28.0817 47.8376 27.8198 48.0659ZM33.0326 54.4523C32.7353 54.6355 32.4233 54.7191 32.1035 54.7191C31.5055 54.716 30.9334 54.4266 30.5973 53.8849C30.4138 53.5876 30.332 53.2724 30.3304 52.9542C30.3318 52.5396 30.4814 52.1409 30.7499 51.8226L34.1047 49.7346C34.4085 49.5464 34.6835 49.328 34.9455 49.0996L35.0676 49.0257C35.365 48.8409 35.6785 48.7588 35.9952 48.7588C36.5964 48.762 37.1637 49.0514 37.5012 49.5946C37.6844 49.892 37.7665 50.2021 37.7681 50.5222C37.7649 51.1184 37.4773 51.6907 36.9307 52.03L33.0326 54.4523ZM43.6402 57.7509L39.7406 60.175C39.4449 60.3584 39.1329 60.4418 38.8115 60.4418C38.215 60.4387 37.6427 60.1493 37.3069 59.6076C37.1236 59.3087 37.0418 58.9967 37.04 58.6769C37.0449 58.0773 37.3326 57.5099 37.8726 57.1723L41.7772 54.7466C42.0745 54.5618 42.3865 54.4815 42.7046 54.4815C43.3042 54.4829 43.8733 54.7723 44.211 55.3158C44.394 55.6133 44.4761 55.925 44.4778 56.2449C44.4745 56.8409 44.1868 57.4099 43.6402 57.7509ZM49.686 61.7051C49.8095 61.9028 49.8627 62.1086 49.8643 62.3238C49.8611 62.7242 49.6698 63.1051 49.3017 63.335L45.9532 65.4149C45.7539 65.5403 45.5481 65.5932 45.3311 65.5932C44.9294 65.5917 44.5484 65.3971 44.3217 65.034C44.1979 64.8329 44.1447 64.6271 44.1432 64.412C44.1479 64.0084 44.3393 63.6306 44.7008 63.4056H44.7024L48.054 61.3224C48.2583 61.1954 48.4625 61.1423 48.6762 61.1423C49.0796 61.1454 49.4574 61.3368 49.684 61.7017L51.6965 60.4543L49.686 61.7051ZM75.7252 47.0049C75.5532 47.3376 75.161 47.7716 74.6644 48.0754C74.1676 48.3826 73.5905 48.5625 73.0376 48.5609C72.8413 48.5609 72.6517 48.5945 72.4669 48.6428C72.1292 48.5688 71.7916 48.466 71.4591 48.3342C70.4287 47.9323 69.466 47.2813 68.7859 46.7315C68.4451 46.4567 68.175 46.2092 67.9949 46.0372L67.7957 45.8395L67.7522 45.7945L67.7457 45.7881H67.7443C67.0818 45.068 65.9599 45.0197 65.2382 45.682C64.5164 46.3444 64.4666 47.4663 65.1306 48.1928C65.1899 48.2539 66.0823 49.2279 67.5434 50.2312C68.2765 50.7327 69.1524 51.244 70.1602 51.6393C70.3933 51.7311 70.6361 51.8161 70.8854 51.8934C70.9546 52.0492 71.0429 52.1972 71.1473 52.337L71.1426 52.3403C71.1554 52.3498 71.2519 52.6555 71.2438 53.0477C71.2552 53.7018 71.0172 54.5586 70.6748 55.0311C70.5078 55.2723 70.3374 55.4249 70.1719 55.5198C70.0031 55.6131 69.8327 55.6742 69.5128 55.6789L69.3985 55.6773C69.3309 55.6742 69.2669 55.6854 69.2009 55.6886C69.1977 55.6886 69.1961 55.6886 69.1961 55.6886C67.6561 55.6951 66.2225 55.0345 65.1646 54.3111C64.6374 53.9543 64.2145 53.5909 63.9301 53.3242C63.7901 53.1924 63.6826 53.0831 63.6165 53.0157L63.5475 52.9417L63.5363 52.9273H63.5347C62.8934 52.1911 61.7762 52.1106 61.0351 52.7521C60.2924 53.395 60.2121 54.5155 60.855 55.258L60.8534 55.2567C60.9226 55.3338 61.7424 56.2787 63.1684 57.2498C64.107 57.8845 65.3319 58.5421 66.7867 58.9214C66.7707 58.9633 66.761 59.005 66.7416 59.047C66.5552 59.468 66.2883 59.902 65.5618 60.3264C65.0713 60.6063 64.721 60.7524 64.4751 60.8264C64.2276 60.9003 64.0894 60.9149 63.9125 60.9163C63.6828 60.9197 63.337 60.8681 62.7615 60.7506C62.6571 60.7283 62.5528 60.7218 62.4482 60.7155C62.4094 60.6992 62.3727 60.6848 62.3308 60.6639C61.7424 60.3873 61.0254 59.8873 60.4966 59.4615C60.2313 59.251 60.0063 59.058 59.8519 58.9214L59.6784 58.7639L59.6382 58.7253L59.6301 58.719C58.9212 58.0407 57.796 58.0664 57.1177 58.7751C56.441 59.484 56.4667 60.6093 57.1756 61.286C57.2126 61.3196 57.96 62.0368 59.008 62.789C59.1944 62.9209 59.4002 63.0543 59.606 63.186C59.3166 63.6474 59.0145 63.9641 58.7188 64.1746C58.2461 64.4994 57.7317 64.6536 57.0695 64.657C56.4764 64.6586 55.7785 64.5123 55.0811 64.2165C54.8496 64.1201 54.6231 63.9834 54.3947 63.8565C54.5282 63.3582 54.6021 62.8422 54.6005 62.3244C54.6021 61.2587 54.3095 60.1688 53.7083 59.2027C52.6877 57.5615 50.9854 56.597 49.2026 56.4394C49.2026 56.375 49.2137 56.3109 49.2137 56.2449C49.2153 55.0764 48.8938 53.8772 48.2347 52.8162V52.8195C47.0035 50.8359 44.8718 49.7395 42.705 49.7443C42.6215 49.7443 42.5361 49.7587 42.4527 49.7621C42.3434 48.8409 42.0411 47.9279 41.5238 47.0953H41.5252C40.5205 45.4766 38.9099 44.4608 37.1722 44.1424C37.1612 42.993 36.8445 41.8211 36.1964 40.7795H36.198C34.9684 38.8008 32.8351 37.7028 30.6683 37.706C29.4964 37.706 28.3021 38.0276 27.2395 38.6865L24.9586 40.1044C24.9038 39.979 24.8348 39.8569 24.785 39.7313C24.3881 38.7814 24.1388 37.8442 24.1115 37.1981L24.0585 36.1982L16.4281 29.5371L30.895 14.5538C31.6346 15.1599 32.3933 15.7611 33.1714 16.3237C34.4605 17.2529 35.7384 18.0727 37.0437 18.6225C37.8813 18.968 38.6978 19.0532 39.447 19.0548C40.6462 19.0501 41.7456 18.8443 42.8918 18.677C42.9657 18.6642 43.0428 18.6579 43.1183 18.6464C41.5431 19.9982 40.1686 21.4611 39.0064 22.8228C38.0274 23.9721 37.2013 25.0555 36.5469 25.9395C35.9009 26.8189 35.4025 27.5278 35.1839 27.8075C34.1069 29.2091 33.6441 30.8857 33.6344 32.5655C33.6391 34.128 34.0539 35.7546 35.1309 37.1292C35.6678 37.809 36.3815 38.4038 37.2333 38.8089C38.0838 39.2171 39.0578 39.4261 40.0721 39.4261C41.3308 39.4227 42.6504 39.1175 44.0475 38.5306C48.4326 36.6756 52.9528 35.4395 56.354 34.6776C58.0547 34.2982 59.4773 34.0347 60.4691 33.8691C60.6557 33.8384 60.8115 33.8127 60.9659 33.7872L75.8462 46.6149L75.8525 46.618L75.8574 46.6261C75.8555 46.6722 75.8327 46.8056 75.7252 47.0049ZM77.4469 36.198L77.3953 37.1979C77.368 37.7701 77.1735 38.577 76.8471 39.4131C76.6814 39.8501 76.479 40.2908 76.2669 40.7245L63.2352 29.4916C62.7289 29.0545 62.0538 28.8519 61.39 28.9355C61.2743 28.9581 51.7162 30.1572 42.2048 34.1664C41.2581 34.5665 40.5476 34.6903 40.0717 34.6871C39.6845 34.6871 39.448 34.6179 39.2729 34.5343C39.0188 34.4105 38.8372 34.2352 38.6573 33.8993C38.4853 33.5684 38.3679 33.0797 38.3696 32.5653C38.3599 31.8259 38.6237 31.0735 38.9192 30.7169C39.2875 30.2411 39.7374 29.5917 40.358 28.7525C41.2788 27.505 42.5296 25.8911 44.0212 24.3207C45.5096 22.7502 47.2409 21.2296 49.0557 20.1621C51.5104 18.7203 53.6018 18.3586 55.5838 18.352C56.8038 18.3505 57.9739 18.5031 59.1153 18.6751C60.2598 18.8439 61.3625 19.0463 62.5585 19.0528C63.306 19.0513 64.1177 18.9661 64.9521 18.6252L64.9632 18.6221C66.2685 18.0723 67.5464 17.2525 68.8355 16.3233C69.6089 15.7639 70.3708 15.1595 71.107 14.5552L85.3475 29.3036L77.4469 36.198Z" fill="#498EEC"/>
</svg>
