<svg width="100" height="100" viewBox="0 0 100 100" fill="none" xmlns="http://www.w3.org/2000/svg">
<path d="M0 25C0 11.1929 11.1929 0 25 0H75C88.8071 0 100 11.1929 100 25V75C100 88.8071 88.8071 100 75 100H25C11.1929 100 0 88.8071 0 75V25Z" fill="white"/>
<path fill-rule="evenodd" clip-rule="evenodd" d="M75.9821 34.2748H55.1421L52.8458 45.258H60.7087C63.4688 45.258 65.8578 45.6067 67.8757 46.3041C69.8936 47.0014 71.5636 47.9661 72.8857 49.1981C74.2077 50.4068 75.1935 51.8596 75.8429 53.5565C76.4924 55.2301 76.8171 57.0665 76.8171 59.0656C76.8171 61.0879 76.4808 63.0521 75.8081 64.9582C75.1355 66.8643 73.9758 68.5611 72.329 70.0488C70.7054 71.5365 68.5251 72.7336 65.7882 73.6402C63.0513 74.5467 59.6301 75 55.5248 75H35.2762L45.8528 25H78L75.9821 34.2748ZM62.9701 55.0558C64.1994 56.0786 64.8141 57.5546 64.8141 59.484C64.8141 60.53 64.6285 61.4947 64.2574 62.378C63.8863 63.2613 63.3064 64.0284 62.5178 64.6792C61.7292 65.3068 60.7087 65.8066 59.4562 66.1785C58.2269 66.5272 56.7425 66.7015 55.0029 66.7015H48.2534L51.0367 53.5216H57.4383C59.8969 53.5216 61.7408 54.033 62.9701 55.0558Z" fill="#498EEC"/>
<path d="M33.9293 25H39.8908L37.2467 37.5H31.197L34.0175 25L33.9293 25Z" fill="#498EEC"/>
<path d="M27 56.25L29.7323 43.75H35.9246L33.2804 56.25H27Z" fill="#498EEC"/>
<path d="M29.3142 75H23L25.7323 62.5H31.9584L29.3142 75Z" fill="#498EEC"/>
</svg>
