<svg width="247" height="56" viewBox="0 0 247 56" fill="none" xmlns="http://www.w3.org/2000/svg">
<path d="M21.1885 4.67578H10.6592L9.49902 10.2129H13.4717C14.8662 10.2129 16.0732 10.3887 17.0928 10.7402C18.1123 11.0918 18.9561 11.5781 19.624 12.1992C20.292 12.8086 20.79 13.541 21.1182 14.3965C21.4463 15.2402 21.6104 16.166 21.6104 17.1738C21.6104 18.1934 21.4404 19.1836 21.1006 20.1445C20.7607 21.1055 20.1748 21.9609 19.3428 22.7109C18.5225 23.4609 17.4209 24.0645 16.0381 24.5215C14.6553 24.9785 12.9268 25.207 10.8525 25.207H0.62207L5.96582 0H22.208L21.1885 4.67578ZM15.5459 17.3848C15.5459 16.4121 15.2354 15.668 14.6143 15.1523C13.9932 14.6367 13.0615 14.3789 11.8193 14.3789H8.58496L7.17871 21.0234H10.5889C11.4678 21.0234 12.2178 20.9355 12.8389 20.7598C13.4717 20.5723 13.9873 20.3203 14.3857 20.0039C14.7842 19.6758 15.0771 19.2891 15.2646 18.8438C15.4521 18.3984 15.5459 17.9121 15.5459 17.3848Z" fill="#498EEC"/>
<path d="M36.8857 17.8242C36.0654 19.1016 35.2744 20.2266 34.5127 21.1992C33.7627 22.1719 32.9775 22.9922 32.1572 23.6602C31.3486 24.3164 30.4756 24.8145 29.5381 25.1543C28.6123 25.4824 27.5576 25.6465 26.374 25.6465C26.0459 25.6465 25.7061 25.623 25.3545 25.5762C25.0146 25.541 24.6865 25.4883 24.3701 25.418C24.0537 25.3594 23.7607 25.2891 23.4912 25.207C23.2217 25.1133 22.999 25.0137 22.8232 24.9082L23.8252 20.127C24.165 20.3262 24.5635 20.4902 25.0205 20.6191C25.4775 20.7363 25.9404 20.7949 26.4092 20.7949C27.1943 20.7949 27.9561 20.5312 28.6943 20.0039C29.4443 19.4648 30.2295 18.5801 31.0498 17.3496L26.4268 0H32.6318L34.6182 9.75586C34.7002 10.2129 34.7646 10.6816 34.8115 11.1621C34.8584 11.6426 34.8936 12.0352 34.917 12.3398H34.9873C35.1865 11.8828 35.3799 11.4434 35.5674 11.0215C35.7666 10.5996 35.96 10.2363 36.1475 9.93164L42.0186 0H48.3643L36.8857 17.8242Z" fill="#498EEC"/>
<path d="M68.1572 7.17188C68.1572 8.41406 67.9404 9.60352 67.5068 10.7402C67.0732 11.8652 66.3994 12.8555 65.4854 13.7109C64.5713 14.5664 63.4111 15.252 62.0049 15.7676C60.5986 16.2715 58.917 16.5234 56.96 16.5234H53.4268L51.5986 25.207H45.8682L51.2295 0H59.8779C61.3076 0 62.5439 0.1875 63.5869 0.5625C64.6299 0.925781 65.4854 1.42969 66.1533 2.07422C66.833 2.70703 67.3369 3.46289 67.665 4.3418C67.9932 5.20898 68.1572 6.15234 68.1572 7.17188ZM62.1455 7.55859C62.1455 6.58594 61.8174 5.8125 61.1611 5.23828C60.5049 4.65234 59.5381 4.35938 58.2607 4.35938H56.0283L54.3584 12.2168H56.96C57.8623 12.2168 58.6357 12.0938 59.2803 11.8477C59.9365 11.5898 60.4756 11.25 60.8975 10.8281C61.3193 10.3945 61.6299 9.89648 61.8291 9.33398C62.04 8.77148 62.1455 8.17969 62.1455 7.55859Z" fill="#498EEC"/>
<path d="M89.1807 25.207H83.4502L87.792 4.76367H82.5186C82.1318 5.94727 81.71 7.19531 81.2529 8.50781C80.8076 9.80859 80.3506 11.0977 79.8818 12.375C79.4248 13.6523 78.9678 14.8652 78.5107 16.0137C78.0537 17.1621 77.6143 18.1699 77.1924 19.0371C76.7002 20.0918 76.1787 21.0234 75.6279 21.832C75.0771 22.6406 74.4736 23.3203 73.8174 23.8711C73.1729 24.4102 72.458 24.8203 71.6729 25.1016C70.8994 25.3828 70.0381 25.5234 69.0889 25.5234C68.5498 25.5234 68.0342 25.4941 67.542 25.4355C67.0381 25.3887 66.5811 25.3008 66.1709 25.1719L67.1553 20.5488C67.3311 20.6309 67.542 20.6953 67.7881 20.7422C68.0342 20.7891 68.2979 20.8125 68.5791 20.8125C69.3525 20.8125 70.0439 20.502 70.6533 19.8809C71.2744 19.2598 71.8838 18.3516 72.4814 17.1562C72.7744 16.5586 73.0908 15.8555 73.4307 15.0469C73.7822 14.2383 74.1396 13.3652 74.5029 12.4277C74.8779 11.4785 75.2588 10.4824 75.6455 9.43945C76.0322 8.38477 76.4131 7.32422 76.7881 6.25781C77.1631 5.17969 77.5264 4.11328 77.8779 3.05859C78.2412 1.99219 78.5811 0.972656 78.8975 0H94.542L89.1807 25.207Z" fill="#498EEC"/>
<path d="M111.892 25.207L111.171 19.5996H102.136L99.1826 25.207H92.7842L107.321 0H114.089L117.692 25.207H111.892ZM109.835 6.73242C109.823 6.54492 109.812 6.33984 109.8 6.11719C109.8 5.88281 109.8 5.66016 109.8 5.44922C109.812 5.23828 109.823 5.05078 109.835 4.88672C109.847 4.71094 109.858 4.58203 109.87 4.5H109.765C109.741 4.60547 109.7 4.74023 109.642 4.9043C109.583 5.06836 109.513 5.25 109.431 5.44922C109.36 5.63672 109.272 5.83594 109.167 6.04688C109.073 6.25781 108.974 6.46289 108.868 6.66211L104.263 15.2402H110.749L109.835 6.73242Z" fill="#498EEC"/>
<path d="M146.415 0C146.134 0.351562 145.694 0.855469 145.097 1.51172C144.499 2.15625 143.819 2.87695 143.058 3.67383C142.308 4.45898 141.511 5.28516 140.667 6.15234C139.835 7.00781 139.038 7.83398 138.276 8.63086C137.526 9.41602 136.853 10.1367 136.255 10.793C135.657 11.4375 135.218 11.9355 134.937 12.2871C135.089 12.6738 135.341 13.2129 135.692 13.9043C136.044 14.584 136.442 15.3398 136.888 16.1719C137.345 16.9922 137.825 17.8535 138.329 18.7559C138.845 19.6465 139.325 20.5078 139.771 21.3398C140.228 22.1602 140.632 22.916 140.983 23.6074C141.335 24.2871 141.587 24.8203 141.739 25.207H134.831C134.726 24.9023 134.538 24.4629 134.269 23.8887C133.999 23.3145 133.683 22.6758 133.319 21.9727C132.968 21.2695 132.593 20.5371 132.194 19.7754C131.796 19.002 131.415 18.2637 131.052 17.5605C130.7 16.8574 130.384 16.2246 130.103 15.6621C129.833 15.0879 129.646 14.6484 129.54 14.3438C129.446 14.1445 129.358 13.9219 129.276 13.6758C129.194 13.418 129.136 13.2188 129.101 13.0781H129.03L126.481 25.207H120.751L126.112 0H131.843L129.364 11.707H129.435C129.563 11.5312 129.71 11.3379 129.874 11.127C130.05 10.916 130.19 10.7402 130.296 10.5996C130.53 10.3066 130.888 9.88477 131.368 9.33398C131.86 8.77148 132.405 8.15039 133.003 7.4707C133.612 6.7793 134.251 6.05859 134.919 5.30859C135.587 4.55859 136.22 3.84375 136.817 3.16406C137.427 2.47266 137.966 1.85156 138.435 1.30078C138.915 0.738281 139.261 0.304688 139.472 0H146.415Z" fill="#498EEC"/>
<path d="M5.95703 55.207H4.36523L5.55664 49.582H2.77344L1.58691 55.207H0L1.47949 48.2051H7.43652L5.95703 55.207Z" fill="#252525"/>
<path d="M12.7686 49.4893H10.3223L9.99023 51.0664H12.2705L11.9922 52.3555H9.72168L9.37988 53.9277H11.9922L11.7188 55.207H7.51953L9.00879 48.2051H13.042L12.7686 49.4893Z" fill="#252525"/>
<path d="M19.0137 50.1973C19.0137 50.5423 18.9535 50.8727 18.833 51.1885C18.7126 51.501 18.5254 51.776 18.2715 52.0137C18.0176 52.2513 17.6953 52.4417 17.3047 52.585C16.9141 52.7249 16.4469 52.7949 15.9033 52.7949H14.9219L14.4141 55.207H12.8223L14.3115 48.2051H16.7139C17.111 48.2051 17.4544 48.2572 17.7441 48.3613C18.0339 48.4622 18.2715 48.6022 18.457 48.7812C18.6458 48.957 18.7858 49.167 18.877 49.4111C18.9681 49.652 19.0137 49.9141 19.0137 50.1973ZM17.3438 50.3047C17.3438 50.0345 17.2526 49.8197 17.0703 49.6602C16.888 49.4974 16.6195 49.416 16.2646 49.416H15.6445L15.1807 51.5986H15.9033C16.154 51.5986 16.3688 51.5645 16.5479 51.4961C16.7301 51.4245 16.8799 51.3301 16.9971 51.2129C17.1143 51.0924 17.2005 50.9541 17.2559 50.7979C17.3145 50.6416 17.3438 50.4772 17.3438 50.3047Z" fill="#252525"/>
<path d="M24.3701 49.4893H21.9238L21.5918 51.0664H23.8721L23.5938 52.3555H21.3232L20.9814 53.9277H23.5938L23.3203 55.207H19.1211L20.6104 48.2051H24.6436L24.3701 49.4893Z" fill="#252525"/>
<path d="M30.5127 49.7871C30.5127 50.0052 30.4769 50.2087 30.4053 50.3975C30.3337 50.5863 30.2262 50.7572 30.083 50.9102C29.943 51.0599 29.7689 51.1885 29.5605 51.2959C29.3522 51.4033 29.1097 51.4831 28.833 51.5352V51.5547C29.0544 51.5872 29.248 51.6475 29.4141 51.7354C29.5801 51.82 29.7184 51.9258 29.8291 52.0527C29.943 52.1797 30.0277 52.3229 30.083 52.4824C30.1383 52.6419 30.166 52.8128 30.166 52.9951C30.166 53.3109 30.1042 53.6038 29.9805 53.874C29.8568 54.141 29.6712 54.3737 29.4238 54.5723C29.1764 54.7708 28.8672 54.9271 28.4961 55.041C28.1283 55.1517 27.6969 55.207 27.2021 55.207H24.4238L25.9131 48.2051H28.3936C28.7744 48.2051 29.0983 48.2458 29.3652 48.3271C29.6354 48.4053 29.8551 48.516 30.0244 48.6592C30.1937 48.7992 30.3174 48.9668 30.3955 49.1621C30.4736 49.3542 30.5127 49.5625 30.5127 49.7871ZM28.8525 50.0947C28.8525 49.9808 28.8346 49.8799 28.7988 49.792C28.7663 49.7008 28.7126 49.6243 28.6377 49.5625C28.5628 49.5007 28.4652 49.4535 28.3447 49.4209C28.2243 49.3851 28.0778 49.3672 27.9053 49.3672H27.2559L26.8945 51.0273H27.6367C27.8255 51.0273 27.9948 51.0062 28.1445 50.9639C28.2943 50.9183 28.4212 50.8548 28.5254 50.7734C28.6328 50.6921 28.7142 50.5944 28.7695 50.4805C28.8249 50.3633 28.8525 50.2347 28.8525 50.0947ZM28.4961 53.0049C28.4961 52.7607 28.4115 52.5654 28.2422 52.4189C28.0729 52.2725 27.8206 52.1992 27.4854 52.1992H26.6553L26.2549 54.0449H27.1338C27.3747 54.0449 27.5814 54.0189 27.7539 53.9668C27.9264 53.9115 28.0664 53.8366 28.1738 53.7422C28.2845 53.6478 28.3659 53.5387 28.418 53.415C28.4701 53.2881 28.4961 53.1514 28.4961 53.0049Z" fill="#252525"/>
<path d="M38.0469 51.0957C38.0469 51.3757 38.0225 51.6572 37.9736 51.9404C37.9248 52.2236 37.8516 52.4987 37.7539 52.7656C37.6595 53.0293 37.5391 53.2832 37.3926 53.5273C37.2493 53.7715 37.0817 53.9945 36.8896 54.1963C36.7269 54.3688 36.5495 54.5251 36.3574 54.665C36.1654 54.805 35.9554 54.9238 35.7275 55.0215C35.5029 55.1191 35.2588 55.194 34.9951 55.2461C34.7314 55.3014 34.4466 55.3291 34.1406 55.3291C33.6784 55.3291 33.265 55.2526 32.9004 55.0996C32.5391 54.9466 32.2331 54.7367 31.9824 54.4697C31.7318 54.1995 31.5397 53.8805 31.4062 53.5127C31.276 53.1449 31.2109 52.7461 31.2109 52.3164C31.2109 52.0137 31.237 51.7158 31.2891 51.4229C31.3411 51.1266 31.4193 50.8434 31.5234 50.5732C31.6309 50.2998 31.7627 50.041 31.9189 49.7969C32.0785 49.5495 32.2624 49.3232 32.4707 49.1182C32.6335 48.9619 32.8092 48.8219 32.998 48.6982C33.1868 48.5713 33.3903 48.4622 33.6084 48.3711C33.8265 48.2799 34.0609 48.21 34.3115 48.1611C34.5622 48.1123 34.8307 48.0879 35.1172 48.0879C35.5501 48.0879 35.9456 48.1562 36.3037 48.293C36.665 48.4297 36.9743 48.6283 37.2314 48.8887C37.4886 49.1458 37.6888 49.4616 37.832 49.8359C37.9753 50.207 38.0469 50.627 38.0469 51.0957ZM36.377 51.1494C36.377 50.8857 36.3428 50.6497 36.2744 50.4414C36.2093 50.2331 36.1149 50.0573 35.9912 49.9141C35.8675 49.7676 35.7161 49.6569 35.5371 49.582C35.3613 49.5039 35.1611 49.4648 34.9365 49.4648C34.6761 49.4648 34.4287 49.5251 34.1943 49.6455C33.96 49.766 33.7516 49.9336 33.5693 50.1484C33.4587 50.2786 33.361 50.4284 33.2764 50.5977C33.1917 50.7669 33.1201 50.946 33.0615 51.1348C33.0029 51.3236 32.9574 51.5173 32.9248 51.7158C32.8955 51.9111 32.8809 52.1048 32.8809 52.2969C32.8809 52.5605 32.9134 52.7965 32.9785 53.0049C33.0469 53.2132 33.1429 53.389 33.2666 53.5322C33.3903 53.6722 33.5384 53.7796 33.7109 53.8545C33.8867 53.9294 34.082 53.9668 34.2969 53.9668C34.5638 53.9668 34.8177 53.9082 35.0586 53.791C35.3027 53.6738 35.516 53.4997 35.6982 53.2686C35.8122 53.1318 35.9115 52.9788 35.9961 52.8096C36.0807 52.637 36.1507 52.458 36.2061 52.2725C36.2614 52.0869 36.3037 51.8981 36.333 51.7061C36.3623 51.514 36.377 51.3285 36.377 51.1494Z" fill="#252525"/>
<path d="M43.9502 49.7871C43.9502 49.9922 43.916 50.1924 43.8477 50.3877C43.7826 50.583 43.6768 50.7637 43.5303 50.9297C43.3838 51.0924 43.195 51.2324 42.9639 51.3496C42.736 51.4668 42.4593 51.5482 42.1338 51.5938V51.6133C42.3389 51.6556 42.5212 51.724 42.6807 51.8184C42.8402 51.9095 42.9753 52.0234 43.0859 52.1602C43.1966 52.2936 43.2796 52.4466 43.335 52.6191C43.3936 52.7917 43.4229 52.9788 43.4229 53.1807C43.4229 53.3369 43.4017 53.4997 43.3594 53.6689C43.3171 53.835 43.2487 53.9977 43.1543 54.1572C43.0599 54.3135 42.9346 54.4632 42.7783 54.6064C42.6253 54.7497 42.4365 54.875 42.2119 54.9824C41.9906 55.0866 41.7301 55.1696 41.4307 55.2314C41.1344 55.2965 40.7943 55.3291 40.4102 55.3291C39.974 55.3291 39.5736 55.29 39.209 55.2119C38.8477 55.137 38.5205 55.0247 38.2275 54.875L38.5059 53.4932C38.623 53.5713 38.7533 53.6445 38.8965 53.7129C39.043 53.778 39.1976 53.8366 39.3604 53.8887C39.5231 53.9408 39.694 53.9814 39.873 54.0107C40.0553 54.04 40.2425 54.0547 40.4346 54.0547C40.7113 54.0547 40.9391 54.027 41.1182 53.9717C41.2972 53.9131 41.4388 53.8382 41.543 53.7471C41.6471 53.6559 41.7188 53.5534 41.7578 53.4395C41.8001 53.3255 41.8213 53.2132 41.8213 53.1025C41.8213 52.8324 41.7253 52.624 41.5332 52.4775C41.3411 52.3311 41.0319 52.2578 40.6055 52.2578H39.6973L39.9463 50.9688H40.8936C41.3558 50.9688 41.7122 50.8923 41.9629 50.7393C42.2168 50.5863 42.3438 50.3519 42.3438 50.0361C42.3438 49.9385 42.3242 49.849 42.2852 49.7676C42.2493 49.6829 42.1908 49.6113 42.1094 49.5527C42.0312 49.4909 41.9303 49.4437 41.8066 49.4111C41.6829 49.3753 41.5332 49.3574 41.3574 49.3574C41.2272 49.3574 41.084 49.3704 40.9277 49.3965C40.7715 49.4193 40.6152 49.4518 40.459 49.4941C40.3027 49.5332 40.153 49.5788 40.0098 49.6309C39.8698 49.6797 39.7461 49.7301 39.6387 49.7822L39.8828 48.4248C39.9902 48.3857 40.1156 48.3467 40.2588 48.3076C40.402 48.2653 40.555 48.2279 40.7178 48.1953C40.8838 48.1628 41.0579 48.1367 41.2402 48.1172C41.4225 48.0977 41.6064 48.0879 41.792 48.0879C42.1598 48.0879 42.4788 48.1302 42.749 48.2148C43.0225 48.2995 43.2471 48.4183 43.4229 48.5713C43.6019 48.721 43.7337 48.9001 43.8184 49.1084C43.9062 49.3167 43.9502 49.543 43.9502 49.7871Z" fill="#252525"/>
<path d="M51.3672 48.2051C51.2891 48.3027 51.167 48.4427 51.001 48.625C50.835 48.804 50.6462 49.0042 50.4346 49.2256C50.2262 49.4437 50.0049 49.6732 49.7705 49.9141C49.5394 50.1517 49.318 50.3812 49.1064 50.6025C48.8981 50.8206 48.7109 51.0208 48.5449 51.2031C48.3789 51.3822 48.2568 51.5205 48.1787 51.6182C48.221 51.7256 48.291 51.8753 48.3887 52.0674C48.4863 52.2562 48.597 52.4661 48.7207 52.6973C48.8477 52.9251 48.9811 53.1644 49.1211 53.415C49.2643 53.6624 49.3978 53.9017 49.5215 54.1328C49.6484 54.3607 49.7607 54.5706 49.8584 54.7627C49.9561 54.9515 50.026 55.0996 50.0684 55.207H48.1494C48.1201 55.1224 48.068 55.0003 47.9932 54.8408C47.9183 54.6813 47.8304 54.5039 47.7295 54.3086C47.6318 54.1133 47.5277 53.9098 47.417 53.6982C47.3063 53.4834 47.2005 53.2783 47.0996 53.083C47.002 52.8877 46.9141 52.7119 46.8359 52.5557C46.7611 52.3962 46.709 52.2741 46.6797 52.1895C46.6536 52.1341 46.6292 52.0723 46.6064 52.0039C46.5837 51.9323 46.5674 51.877 46.5576 51.8379H46.5381L45.8301 55.207H44.2383L45.7275 48.2051H47.3193L46.6309 51.457H46.6504C46.6862 51.4082 46.7269 51.3545 46.7725 51.2959C46.8213 51.2373 46.8604 51.1885 46.8896 51.1494C46.9548 51.068 47.054 50.9508 47.1875 50.7979C47.3242 50.6416 47.4756 50.4691 47.6416 50.2803C47.8109 50.0882 47.9883 49.888 48.1738 49.6797C48.3594 49.4714 48.5352 49.2728 48.7012 49.084C48.8704 48.8919 49.0202 48.7194 49.1504 48.5664C49.2839 48.4102 49.3799 48.2897 49.4385 48.2051H51.3672Z" fill="#252525"/>
<path d="M55.3223 55.207L55.1221 53.6494H52.6123L51.792 55.207H50.0146L54.0527 48.2051H55.9326L56.9336 55.207H55.3223ZM54.751 50.0752C54.7477 50.0231 54.7445 49.9661 54.7412 49.9043C54.7412 49.8392 54.7412 49.7773 54.7412 49.7188C54.7445 49.6602 54.7477 49.6081 54.751 49.5625C54.7542 49.5137 54.7575 49.4779 54.7607 49.4551H54.7314C54.7249 49.4844 54.7135 49.5218 54.6973 49.5674C54.681 49.613 54.6615 49.6634 54.6387 49.7188C54.6191 49.7708 54.5947 49.8262 54.5654 49.8848C54.5394 49.9434 54.5117 50.0003 54.4824 50.0557L53.2031 52.4385H55.0049L54.751 50.0752Z" fill="#252525"/>
<path d="M65.1074 55.207L64.9072 53.6494H62.3975L61.5771 55.207H59.7998L63.8379 48.2051H65.7178L66.7188 55.207H65.1074ZM64.5361 50.0752C64.5329 50.0231 64.5296 49.9661 64.5264 49.9043C64.5264 49.8392 64.5264 49.7773 64.5264 49.7188C64.5296 49.6602 64.5329 49.6081 64.5361 49.5625C64.5394 49.5137 64.5426 49.4779 64.5459 49.4551H64.5166C64.5101 49.4844 64.4987 49.5218 64.4824 49.5674C64.4661 49.613 64.4466 49.6634 64.4238 49.7188C64.4043 49.7708 64.3799 49.8262 64.3506 49.8848C64.3245 49.9434 64.2969 50.0003 64.2676 50.0557L62.9883 52.4385H64.79L64.5361 50.0752Z" fill="#252525"/>
<path d="M73.6572 49.7871C73.6572 50.0052 73.6214 50.2087 73.5498 50.3975C73.4782 50.5863 73.3708 50.7572 73.2275 50.9102C73.0876 51.0599 72.9134 51.1885 72.7051 51.2959C72.4967 51.4033 72.2542 51.4831 71.9775 51.5352V51.5547C72.1989 51.5872 72.3926 51.6475 72.5586 51.7354C72.7246 51.82 72.863 51.9258 72.9736 52.0527C73.0876 52.1797 73.1722 52.3229 73.2275 52.4824C73.2829 52.6419 73.3105 52.8128 73.3105 52.9951C73.3105 53.3109 73.2487 53.6038 73.125 53.874C73.0013 54.141 72.8158 54.3737 72.5684 54.5723C72.321 54.7708 72.0117 54.9271 71.6406 55.041C71.2728 55.1517 70.8415 55.207 70.3467 55.207H67.5684L69.0576 48.2051H71.5381C71.9189 48.2051 72.2428 48.2458 72.5098 48.3271C72.7799 48.4053 72.9997 48.516 73.1689 48.6592C73.3382 48.7992 73.4619 48.9668 73.54 49.1621C73.6182 49.3542 73.6572 49.5625 73.6572 49.7871ZM71.9971 50.0947C71.9971 49.9808 71.9792 49.8799 71.9434 49.792C71.9108 49.7008 71.8571 49.6243 71.7822 49.5625C71.7074 49.5007 71.6097 49.4535 71.4893 49.4209C71.3688 49.3851 71.2223 49.3672 71.0498 49.3672H70.4004L70.0391 51.0273H70.7812C70.9701 51.0273 71.1393 51.0062 71.2891 50.9639C71.4388 50.9183 71.5658 50.8548 71.6699 50.7734C71.7773 50.6921 71.8587 50.5944 71.9141 50.4805C71.9694 50.3633 71.9971 50.2347 71.9971 50.0947ZM71.6406 53.0049C71.6406 52.7607 71.556 52.5654 71.3867 52.4189C71.2174 52.2725 70.9652 52.1992 70.6299 52.1992H69.7998L69.3994 54.0449H70.2783C70.5192 54.0449 70.7259 54.0189 70.8984 53.9668C71.071 53.9115 71.2109 53.8366 71.3184 53.7422C71.429 53.6478 71.5104 53.5387 71.5625 53.415C71.6146 53.2881 71.6406 53.1514 71.6406 53.0049Z" fill="#252525"/>
<path d="M80.1758 49.4893H78.2031L76.9922 55.207H75.4053L76.6113 49.4893H74.6143L74.8926 48.2051H80.4541L80.1758 49.4893Z" fill="#252525"/>
<path d="M87.0605 51.0957C87.0605 51.3757 87.0361 51.6572 86.9873 51.9404C86.9385 52.2236 86.8652 52.4987 86.7676 52.7656C86.6732 53.0293 86.5527 53.2832 86.4062 53.5273C86.263 53.7715 86.0954 53.9945 85.9033 54.1963C85.7406 54.3688 85.5632 54.5251 85.3711 54.665C85.179 54.805 84.9691 54.9238 84.7412 55.0215C84.5166 55.1191 84.2725 55.194 84.0088 55.2461C83.7451 55.3014 83.4603 55.3291 83.1543 55.3291C82.6921 55.3291 82.2786 55.2526 81.9141 55.0996C81.5527 54.9466 81.2467 54.7367 80.9961 54.4697C80.7454 54.1995 80.5534 53.8805 80.4199 53.5127C80.2897 53.1449 80.2246 52.7461 80.2246 52.3164C80.2246 52.0137 80.2507 51.7158 80.3027 51.4229C80.3548 51.1266 80.4329 50.8434 80.5371 50.5732C80.6445 50.2998 80.7764 50.041 80.9326 49.7969C81.0921 49.5495 81.276 49.3232 81.4844 49.1182C81.6471 48.9619 81.8229 48.8219 82.0117 48.6982C82.2005 48.5713 82.404 48.4622 82.6221 48.3711C82.8402 48.2799 83.0745 48.21 83.3252 48.1611C83.5758 48.1123 83.8444 48.0879 84.1309 48.0879C84.5638 48.0879 84.9593 48.1562 85.3174 48.293C85.6787 48.4297 85.988 48.6283 86.2451 48.8887C86.5023 49.1458 86.7025 49.4616 86.8457 49.8359C86.9889 50.207 87.0605 50.627 87.0605 51.0957ZM85.3906 51.1494C85.3906 50.8857 85.3564 50.6497 85.2881 50.4414C85.223 50.2331 85.1286 50.0573 85.0049 49.9141C84.8812 49.7676 84.7298 49.6569 84.5508 49.582C84.375 49.5039 84.1748 49.4648 83.9502 49.4648C83.6898 49.4648 83.4424 49.5251 83.208 49.6455C82.9736 49.766 82.7653 49.9336 82.583 50.1484C82.4723 50.2786 82.3747 50.4284 82.29 50.5977C82.2054 50.7669 82.1338 50.946 82.0752 51.1348C82.0166 51.3236 81.971 51.5173 81.9385 51.7158C81.9092 51.9111 81.8945 52.1048 81.8945 52.2969C81.8945 52.5605 81.9271 52.7965 81.9922 53.0049C82.0605 53.2132 82.1566 53.389 82.2803 53.5322C82.404 53.6722 82.5521 53.7796 82.7246 53.8545C82.9004 53.9294 83.0957 53.9668 83.3105 53.9668C83.5775 53.9668 83.8314 53.9082 84.0723 53.791C84.3164 53.6738 84.5296 53.4997 84.7119 53.2686C84.8258 53.1318 84.9251 52.9788 85.0098 52.8096C85.0944 52.637 85.1644 52.458 85.2197 52.2725C85.2751 52.0869 85.3174 51.8981 85.3467 51.7061C85.376 51.514 85.3906 51.3285 85.3906 51.1494Z" fill="#252525"/>
<path d="M94.6191 55.207H93.2031L94.0918 51.0176C94.1895 50.5716 94.3164 50.0719 94.4727 49.5186H94.4336C94.388 49.6227 94.3392 49.7269 94.2871 49.8311C94.2383 49.9352 94.1895 50.0345 94.1406 50.1289C94.0918 50.2201 94.0462 50.3031 94.0039 50.3779C93.9616 50.4495 93.9242 50.5081 93.8916 50.5537L92.0166 53.1074H90.9131L90.1855 50.6025C90.1693 50.5537 90.153 50.4772 90.1367 50.373C90.1237 50.2656 90.1172 50.1549 90.1172 50.041V49.5186H90.0732C90.0277 49.8245 89.9821 50.1061 89.9365 50.3633C89.8942 50.6204 89.8551 50.8369 89.8193 51.0127L88.9258 55.207H87.5049L88.9941 48.2051H90.8691L91.5869 50.6367C91.6097 50.7148 91.6309 50.7995 91.6504 50.8906C91.6699 50.9785 91.6862 51.068 91.6992 51.1592C91.7122 51.2471 91.722 51.3333 91.7285 51.418C91.735 51.4993 91.7383 51.5726 91.7383 51.6377H91.7627C91.7985 51.5661 91.8359 51.4863 91.875 51.3984C91.9173 51.3073 91.9596 51.2161 92.002 51.125C92.0475 51.0306 92.0947 50.9411 92.1436 50.8564C92.1924 50.7686 92.2412 50.6921 92.29 50.627L94.0771 48.2051H96.1084L94.6191 55.207Z" fill="#252525"/>
<path d="M103.35 51.0957C103.35 51.3757 103.325 51.6572 103.276 51.9404C103.228 52.2236 103.154 52.4987 103.057 52.7656C102.962 53.0293 102.842 53.2832 102.695 53.5273C102.552 53.7715 102.384 53.9945 102.192 54.1963C102.03 54.3688 101.852 54.5251 101.66 54.665C101.468 54.805 101.258 54.9238 101.03 55.0215C100.806 55.1191 100.562 55.194 100.298 55.2461C100.034 55.3014 99.7493 55.3291 99.4434 55.3291C98.9811 55.3291 98.5677 55.2526 98.2031 55.0996C97.8418 54.9466 97.5358 54.7367 97.2852 54.4697C97.0345 54.1995 96.8424 53.8805 96.709 53.5127C96.5788 53.1449 96.5137 52.7461 96.5137 52.3164C96.5137 52.0137 96.5397 51.7158 96.5918 51.4229C96.6439 51.1266 96.722 50.8434 96.8262 50.5732C96.9336 50.2998 97.0654 50.041 97.2217 49.7969C97.3812 49.5495 97.5651 49.3232 97.7734 49.1182C97.9362 48.9619 98.112 48.8219 98.3008 48.6982C98.4896 48.5713 98.693 48.4622 98.9111 48.3711C99.1292 48.2799 99.3636 48.21 99.6143 48.1611C99.8649 48.1123 100.133 48.0879 100.42 48.0879C100.853 48.0879 101.248 48.1562 101.606 48.293C101.968 48.4297 102.277 48.6283 102.534 48.8887C102.791 49.1458 102.992 49.4616 103.135 49.8359C103.278 50.207 103.35 50.627 103.35 51.0957ZM101.68 51.1494C101.68 50.8857 101.646 50.6497 101.577 50.4414C101.512 50.2331 101.418 50.0573 101.294 49.9141C101.17 49.7676 101.019 49.6569 100.84 49.582C100.664 49.5039 100.464 49.4648 100.239 49.4648C99.9788 49.4648 99.7314 49.5251 99.4971 49.6455C99.2627 49.766 99.0544 49.9336 98.8721 50.1484C98.7614 50.2786 98.6637 50.4284 98.5791 50.5977C98.4945 50.7669 98.4229 50.946 98.3643 51.1348C98.3057 51.3236 98.2601 51.5173 98.2275 51.7158C98.1982 51.9111 98.1836 52.1048 98.1836 52.2969C98.1836 52.5605 98.2161 52.7965 98.2812 53.0049C98.3496 53.2132 98.4456 53.389 98.5693 53.5322C98.693 53.6722 98.8411 53.7796 99.0137 53.8545C99.1895 53.9294 99.3848 53.9668 99.5996 53.9668C99.8665 53.9668 100.12 53.9082 100.361 53.791C100.605 53.6738 100.819 53.4997 101.001 53.2686C101.115 53.1318 101.214 52.9788 101.299 52.8096C101.383 52.637 101.453 52.458 101.509 52.2725C101.564 52.0869 101.606 51.8981 101.636 51.7061C101.665 51.514 101.68 51.3285 101.68 51.1494Z" fill="#252525"/>
<path d="M109.512 49.5039H106.587L106.265 51.042H107.368C107.756 51.042 108.091 51.0908 108.374 51.1885C108.657 51.2861 108.892 51.4212 109.077 51.5938C109.263 51.763 109.401 51.9665 109.492 52.2041C109.583 52.4385 109.629 52.6956 109.629 52.9756C109.629 53.2588 109.582 53.5339 109.487 53.8008C109.393 54.0677 109.23 54.3053 108.999 54.5137C108.771 54.722 108.465 54.8896 108.081 55.0166C107.697 55.1436 107.217 55.207 106.641 55.207H103.799L105.283 48.2051H109.795L109.512 49.5039ZM107.944 53.0342C107.944 52.764 107.858 52.5573 107.686 52.4141C107.513 52.2708 107.254 52.1992 106.909 52.1992H106.011L105.62 54.0449H106.567C106.812 54.0449 107.02 54.0205 107.192 53.9717C107.368 53.9196 107.511 53.8496 107.622 53.7617C107.733 53.6706 107.814 53.5632 107.866 53.4395C107.918 53.3158 107.944 53.1807 107.944 53.0342Z" fill="#252525"/>
<path d="M116.504 55.207H115.029L115.82 51.457C115.859 51.2747 115.898 51.099 115.938 50.9297C115.98 50.7604 116.021 50.6025 116.06 50.4561H116.04C115.972 50.5407 115.885 50.6416 115.781 50.7588C115.68 50.8727 115.578 50.9867 115.474 51.1006C115.379 51.2015 115.285 51.3024 115.19 51.4033C115.096 51.501 115.002 51.6019 114.907 51.7061C113.833 52.8714 112.754 54.0384 111.67 55.207H110.229L111.709 48.2051H113.184C113.047 48.8594 112.91 49.5088 112.773 50.1533C112.64 50.7946 112.505 51.4408 112.368 52.0918C112.349 52.1895 112.323 52.3018 112.29 52.4287C112.261 52.5557 112.228 52.6745 112.192 52.7852H112.212C112.241 52.7461 112.277 52.7005 112.319 52.6484C112.365 52.5964 112.412 52.5426 112.461 52.4873C112.51 52.432 112.559 52.3783 112.607 52.3262C112.656 52.2741 112.699 52.2285 112.734 52.1895C112.829 52.0885 112.922 51.9893 113.013 51.8916C113.107 51.7907 113.201 51.6914 113.296 51.5938C113.82 51.0273 114.342 50.4626 114.863 49.8994C115.384 49.3363 115.907 48.7715 116.431 48.2051H117.983L116.504 55.207Z" fill="#252525"/>
<path d="M123.818 55.207H122.227L123.433 49.5283H121.968C121.86 49.8571 121.743 50.2038 121.616 50.5684C121.493 50.9297 121.366 51.2878 121.235 51.6426C121.108 51.9974 120.981 52.3343 120.854 52.6533C120.728 52.9723 120.605 53.2523 120.488 53.4932C120.352 53.7861 120.207 54.0449 120.054 54.2695C119.901 54.4941 119.733 54.6829 119.551 54.8359C119.372 54.9857 119.173 55.0996 118.955 55.1777C118.74 55.2559 118.501 55.2949 118.237 55.2949C118.088 55.2949 117.944 55.2868 117.808 55.2705C117.668 55.2575 117.541 55.2331 117.427 55.1973L117.7 53.9131C117.749 53.9359 117.808 53.9538 117.876 53.9668C117.944 53.9798 118.018 53.9863 118.096 53.9863C118.311 53.9863 118.503 53.9001 118.672 53.7275C118.844 53.555 119.014 53.3027 119.18 52.9707C119.261 52.8047 119.349 52.6094 119.443 52.3848C119.541 52.1602 119.64 51.9176 119.741 51.6572C119.845 51.3936 119.951 51.1169 120.059 50.8271C120.166 50.5342 120.272 50.2396 120.376 49.9434C120.48 49.6439 120.581 49.3477 120.679 49.0547C120.78 48.7585 120.874 48.4753 120.962 48.2051H125.308L123.818 55.207Z" fill="#252525"/>
<path d="M130.806 49.4893H128.359L128.027 51.0664H130.308L130.029 52.3555H127.759L127.417 53.9277H130.029L129.756 55.207H125.557L127.046 48.2051H131.079L130.806 49.4893Z" fill="#252525"/>
<path d="M137.129 55.207H135.654L136.445 51.457C136.484 51.2747 136.523 51.099 136.562 50.9297C136.605 50.7604 136.646 50.6025 136.685 50.4561H136.665C136.597 50.5407 136.51 50.6416 136.406 50.7588C136.305 50.8727 136.203 50.9867 136.099 51.1006C136.004 51.2015 135.91 51.3024 135.815 51.4033C135.721 51.501 135.627 51.6019 135.532 51.7061C134.458 52.8714 133.379 54.0384 132.295 55.207H130.854L132.334 48.2051H133.809C133.672 48.8594 133.535 49.5088 133.398 50.1533C133.265 50.7946 133.13 51.4408 132.993 52.0918C132.974 52.1895 132.948 52.3018 132.915 52.4287C132.886 52.5557 132.853 52.6745 132.817 52.7852H132.837C132.866 52.7461 132.902 52.7005 132.944 52.6484C132.99 52.5964 133.037 52.5426 133.086 52.4873C133.135 52.432 133.184 52.3783 133.232 52.3262C133.281 52.2741 133.324 52.2285 133.359 52.1895C133.454 52.0885 133.547 51.9893 133.638 51.8916C133.732 51.7907 133.826 51.6914 133.921 51.5938C134.445 51.0273 134.967 50.4626 135.488 49.8994C136.009 49.3363 136.532 48.7715 137.056 48.2051H138.608L137.129 55.207ZM137.891 45.8857C137.819 46.1299 137.71 46.3561 137.563 46.5645C137.417 46.7728 137.24 46.9518 137.031 47.1016C136.826 47.2513 136.592 47.3685 136.328 47.4531C136.064 47.5378 135.781 47.5801 135.479 47.5801C135.215 47.5801 134.969 47.5394 134.741 47.458C134.517 47.3734 134.32 47.2562 134.15 47.1064C133.984 46.9567 133.853 46.7777 133.755 46.5693C133.66 46.361 133.61 46.1331 133.604 45.8857H134.775C134.779 45.9964 134.797 46.1038 134.829 46.208C134.865 46.3122 134.915 46.4049 134.98 46.4863C135.049 46.5645 135.133 46.6279 135.234 46.6768C135.335 46.7223 135.454 46.7451 135.591 46.7451C135.724 46.7451 135.85 46.724 135.967 46.6816C136.087 46.6361 136.195 46.5742 136.289 46.4961C136.387 46.418 136.471 46.3268 136.543 46.2227C136.615 46.1185 136.672 46.0062 136.714 45.8857H137.891Z" fill="#252525"/>
<path d="M146.035 55.207L145.835 53.6494H143.325L142.505 55.207H140.728L144.766 48.2051H146.646L147.646 55.207H146.035ZM145.464 50.0752C145.461 50.0231 145.457 49.9661 145.454 49.9043C145.454 49.8392 145.454 49.7773 145.454 49.7188C145.457 49.6602 145.461 49.6081 145.464 49.5625C145.467 49.5137 145.47 49.4779 145.474 49.4551H145.444C145.438 49.4844 145.426 49.5218 145.41 49.5674C145.394 49.613 145.374 49.6634 145.352 49.7188C145.332 49.7708 145.308 49.8262 145.278 49.8848C145.252 49.9434 145.225 50.0003 145.195 50.0557L143.916 52.4385H145.718L145.464 50.0752Z" fill="#252525"/>
<path d="M154.585 49.7871C154.585 50.0052 154.549 50.2087 154.478 50.3975C154.406 50.5863 154.299 50.7572 154.155 50.9102C154.015 51.0599 153.841 51.1885 153.633 51.2959C153.424 51.4033 153.182 51.4831 152.905 51.5352V51.5547C153.127 51.5872 153.32 51.6475 153.486 51.7354C153.652 51.82 153.791 51.9258 153.901 52.0527C154.015 52.1797 154.1 52.3229 154.155 52.4824C154.211 52.6419 154.238 52.8128 154.238 52.9951C154.238 53.3109 154.176 53.6038 154.053 53.874C153.929 54.141 153.743 54.3737 153.496 54.5723C153.249 54.7708 152.939 54.9271 152.568 55.041C152.201 55.1517 151.769 55.207 151.274 55.207H148.496L149.985 48.2051H152.466C152.847 48.2051 153.171 48.2458 153.438 48.3271C153.708 48.4053 153.927 48.516 154.097 48.6592C154.266 48.7992 154.39 48.9668 154.468 49.1621C154.546 49.3542 154.585 49.5625 154.585 49.7871ZM152.925 50.0947C152.925 49.9808 152.907 49.8799 152.871 49.792C152.839 49.7008 152.785 49.6243 152.71 49.5625C152.635 49.5007 152.537 49.4535 152.417 49.4209C152.297 49.3851 152.15 49.3672 151.978 49.3672H151.328L150.967 51.0273H151.709C151.898 51.0273 152.067 51.0062 152.217 50.9639C152.367 50.9183 152.493 50.8548 152.598 50.7734C152.705 50.6921 152.786 50.5944 152.842 50.4805C152.897 50.3633 152.925 50.2347 152.925 50.0947ZM152.568 53.0049C152.568 52.7607 152.484 52.5654 152.314 52.4189C152.145 52.2725 151.893 52.1992 151.558 52.1992H150.728L150.327 54.0449H151.206C151.447 54.0449 151.654 54.0189 151.826 53.9668C151.999 53.9115 152.139 53.8366 152.246 53.7422C152.357 53.6478 152.438 53.5387 152.49 53.415C152.542 53.2881 152.568 53.1514 152.568 53.0049Z" fill="#252525"/>
<path d="M161.104 49.4893H159.131L157.92 55.207H156.333L157.539 49.4893H155.542L155.82 48.2051H161.382L161.104 49.4893Z" fill="#252525"/>
<path d="M167.988 51.0957C167.988 51.3757 167.964 51.6572 167.915 51.9404C167.866 52.2236 167.793 52.4987 167.695 52.7656C167.601 53.0293 167.48 53.2832 167.334 53.5273C167.191 53.7715 167.023 53.9945 166.831 54.1963C166.668 54.3688 166.491 54.5251 166.299 54.665C166.107 54.805 165.897 54.9238 165.669 55.0215C165.444 55.1191 165.2 55.194 164.937 55.2461C164.673 55.3014 164.388 55.3291 164.082 55.3291C163.62 55.3291 163.206 55.2526 162.842 55.0996C162.48 54.9466 162.174 54.7367 161.924 54.4697C161.673 54.1995 161.481 53.8805 161.348 53.5127C161.217 53.1449 161.152 52.7461 161.152 52.3164C161.152 52.0137 161.178 51.7158 161.23 51.4229C161.283 51.1266 161.361 50.8434 161.465 50.5732C161.572 50.2998 161.704 50.041 161.86 49.7969C162.02 49.5495 162.204 49.3232 162.412 49.1182C162.575 48.9619 162.751 48.8219 162.939 48.6982C163.128 48.5713 163.332 48.4622 163.55 48.3711C163.768 48.2799 164.002 48.21 164.253 48.1611C164.504 48.1123 164.772 48.0879 165.059 48.0879C165.492 48.0879 165.887 48.1562 166.245 48.293C166.606 48.4297 166.916 48.6283 167.173 48.8887C167.43 49.1458 167.63 49.4616 167.773 49.8359C167.917 50.207 167.988 50.627 167.988 51.0957ZM166.318 51.1494C166.318 50.8857 166.284 50.6497 166.216 50.4414C166.151 50.2331 166.056 50.0573 165.933 49.9141C165.809 49.7676 165.658 49.6569 165.479 49.582C165.303 49.5039 165.103 49.4648 164.878 49.4648C164.618 49.4648 164.37 49.5251 164.136 49.6455C163.901 49.766 163.693 49.9336 163.511 50.1484C163.4 50.2786 163.302 50.4284 163.218 50.5977C163.133 50.7669 163.062 50.946 163.003 51.1348C162.944 51.3236 162.899 51.5173 162.866 51.7158C162.837 51.9111 162.822 52.1048 162.822 52.2969C162.822 52.5605 162.855 52.7965 162.92 53.0049C162.988 53.2132 163.084 53.389 163.208 53.5322C163.332 53.6722 163.48 53.7796 163.652 53.8545C163.828 53.9294 164.023 53.9668 164.238 53.9668C164.505 53.9668 164.759 53.9082 165 53.791C165.244 53.6738 165.457 53.4997 165.64 53.2686C165.754 53.1318 165.853 52.9788 165.938 52.8096C166.022 52.637 166.092 52.458 166.147 52.2725C166.203 52.0869 166.245 51.8981 166.274 51.7061C166.304 51.514 166.318 51.3285 166.318 51.1494Z" fill="#252525"/>
<path d="M174.526 49.7871C174.526 50.0052 174.491 50.2087 174.419 50.3975C174.347 50.5863 174.24 50.7572 174.097 50.9102C173.957 51.0599 173.783 51.1885 173.574 51.2959C173.366 51.4033 173.123 51.4831 172.847 51.5352V51.5547C173.068 51.5872 173.262 51.6475 173.428 51.7354C173.594 51.82 173.732 51.9258 173.843 52.0527C173.957 52.1797 174.041 52.3229 174.097 52.4824C174.152 52.6419 174.18 52.8128 174.18 52.9951C174.18 53.3109 174.118 53.6038 173.994 53.874C173.87 54.141 173.685 54.3737 173.438 54.5723C173.19 54.7708 172.881 54.9271 172.51 55.041C172.142 55.1517 171.711 55.207 171.216 55.207H168.438L169.927 48.2051H172.407C172.788 48.2051 173.112 48.2458 173.379 48.3271C173.649 48.4053 173.869 48.516 174.038 48.6592C174.207 48.7992 174.331 48.9668 174.409 49.1621C174.487 49.3542 174.526 49.5625 174.526 49.7871ZM172.866 50.0947C172.866 49.9808 172.848 49.8799 172.812 49.792C172.78 49.7008 172.726 49.6243 172.651 49.5625C172.576 49.5007 172.479 49.4535 172.358 49.4209C172.238 49.3851 172.091 49.3672 171.919 49.3672H171.27L170.908 51.0273H171.65C171.839 51.0273 172.008 51.0062 172.158 50.9639C172.308 50.9183 172.435 50.8548 172.539 50.7734C172.646 50.6921 172.728 50.5944 172.783 50.4805C172.839 50.3633 172.866 50.2347 172.866 50.0947ZM172.51 53.0049C172.51 52.7607 172.425 52.5654 172.256 52.4189C172.087 52.2725 171.834 52.1992 171.499 52.1992H170.669L170.269 54.0449H171.147C171.388 54.0449 171.595 54.0189 171.768 53.9668C171.94 53.9115 172.08 53.8366 172.188 53.7422C172.298 53.6478 172.38 53.5387 172.432 53.415C172.484 53.2881 172.51 53.1514 172.51 53.0049Z" fill="#252525"/>
<path d="M182.061 51.0957C182.061 51.3757 182.036 51.6572 181.987 51.9404C181.938 52.2236 181.865 52.4987 181.768 52.7656C181.673 53.0293 181.553 53.2832 181.406 53.5273C181.263 53.7715 181.095 53.9945 180.903 54.1963C180.741 54.3688 180.563 54.5251 180.371 54.665C180.179 54.805 179.969 54.9238 179.741 55.0215C179.517 55.1191 179.272 55.194 179.009 55.2461C178.745 55.3014 178.46 55.3291 178.154 55.3291C177.692 55.3291 177.279 55.2526 176.914 55.0996C176.553 54.9466 176.247 54.7367 175.996 54.4697C175.745 54.1995 175.553 53.8805 175.42 53.5127C175.29 53.1449 175.225 52.7461 175.225 52.3164C175.225 52.0137 175.251 51.7158 175.303 51.4229C175.355 51.1266 175.433 50.8434 175.537 50.5732C175.645 50.2998 175.776 50.041 175.933 49.7969C176.092 49.5495 176.276 49.3232 176.484 49.1182C176.647 48.9619 176.823 48.8219 177.012 48.6982C177.201 48.5713 177.404 48.4622 177.622 48.3711C177.84 48.2799 178.075 48.21 178.325 48.1611C178.576 48.1123 178.844 48.0879 179.131 48.0879C179.564 48.0879 179.959 48.1562 180.317 48.293C180.679 48.4297 180.988 48.6283 181.245 48.8887C181.502 49.1458 181.702 49.4616 181.846 49.8359C181.989 50.207 182.061 50.627 182.061 51.0957ZM180.391 51.1494C180.391 50.8857 180.356 50.6497 180.288 50.4414C180.223 50.2331 180.129 50.0573 180.005 49.9141C179.881 49.7676 179.73 49.6569 179.551 49.582C179.375 49.5039 179.175 49.4648 178.95 49.4648C178.69 49.4648 178.442 49.5251 178.208 49.6455C177.974 49.766 177.765 49.9336 177.583 50.1484C177.472 50.2786 177.375 50.4284 177.29 50.5977C177.205 50.7669 177.134 50.946 177.075 51.1348C177.017 51.3236 176.971 51.5173 176.938 51.7158C176.909 51.9111 176.895 52.1048 176.895 52.2969C176.895 52.5605 176.927 52.7965 176.992 53.0049C177.061 53.2132 177.157 53.389 177.28 53.5322C177.404 53.6722 177.552 53.7796 177.725 53.8545C177.9 53.9294 178.096 53.9668 178.311 53.9668C178.577 53.9668 178.831 53.9082 179.072 53.791C179.316 53.6738 179.53 53.4997 179.712 53.2686C179.826 53.1318 179.925 52.9788 180.01 52.8096C180.094 52.637 180.164 52.458 180.22 52.2725C180.275 52.0869 180.317 51.8981 180.347 51.7061C180.376 51.514 180.391 51.3285 180.391 51.1494Z" fill="#252525"/>
<path d="M187.964 49.7871C187.964 49.9922 187.93 50.1924 187.861 50.3877C187.796 50.583 187.69 50.7637 187.544 50.9297C187.397 51.0924 187.209 51.2324 186.978 51.3496C186.75 51.4668 186.473 51.5482 186.147 51.5938V51.6133C186.353 51.6556 186.535 51.724 186.694 51.8184C186.854 51.9095 186.989 52.0234 187.1 52.1602C187.21 52.2936 187.293 52.4466 187.349 52.6191C187.407 52.7917 187.437 52.9788 187.437 53.1807C187.437 53.3369 187.415 53.4997 187.373 53.6689C187.331 53.835 187.262 53.9977 187.168 54.1572C187.074 54.3135 186.948 54.4632 186.792 54.6064C186.639 54.7497 186.45 54.875 186.226 54.9824C186.004 55.0866 185.744 55.1696 185.444 55.2314C185.148 55.2965 184.808 55.3291 184.424 55.3291C183.988 55.3291 183.587 55.29 183.223 55.2119C182.861 55.137 182.534 55.0247 182.241 54.875L182.52 53.4932C182.637 53.5713 182.767 53.6445 182.91 53.7129C183.057 53.778 183.211 53.8366 183.374 53.8887C183.537 53.9408 183.708 53.9814 183.887 54.0107C184.069 54.04 184.256 54.0547 184.448 54.0547C184.725 54.0547 184.953 54.027 185.132 53.9717C185.311 53.9131 185.452 53.8382 185.557 53.7471C185.661 53.6559 185.732 53.5534 185.771 53.4395C185.814 53.3255 185.835 53.2132 185.835 53.1025C185.835 52.8324 185.739 52.624 185.547 52.4775C185.355 52.3311 185.046 52.2578 184.619 52.2578H183.711L183.96 50.9688H184.907C185.369 50.9688 185.726 50.8923 185.977 50.7393C186.23 50.5863 186.357 50.3519 186.357 50.0361C186.357 49.9385 186.338 49.849 186.299 49.7676C186.263 49.6829 186.204 49.6113 186.123 49.5527C186.045 49.4909 185.944 49.4437 185.82 49.4111C185.697 49.3753 185.547 49.3574 185.371 49.3574C185.241 49.3574 185.098 49.3704 184.941 49.3965C184.785 49.4193 184.629 49.4518 184.473 49.4941C184.316 49.5332 184.167 49.5788 184.023 49.6309C183.883 49.6797 183.76 49.7301 183.652 49.7822L183.896 48.4248C184.004 48.3857 184.129 48.3467 184.272 48.3076C184.416 48.2653 184.569 48.2279 184.731 48.1953C184.897 48.1628 185.072 48.1367 185.254 48.1172C185.436 48.0977 185.62 48.0879 185.806 48.0879C186.174 48.0879 186.493 48.1302 186.763 48.2148C187.036 48.2995 187.261 48.4183 187.437 48.5713C187.616 48.721 187.747 48.9001 187.832 49.1084C187.92 49.3167 187.964 49.543 187.964 49.7871Z" fill="#252525"/>
<path d="M192.822 55.207L192.622 53.6494H190.112L189.292 55.207H187.515L191.553 48.2051H193.433L194.434 55.207H192.822ZM192.251 50.0752C192.248 50.0231 192.244 49.9661 192.241 49.9043C192.241 49.8392 192.241 49.7773 192.241 49.7188C192.244 49.6602 192.248 49.6081 192.251 49.5625C192.254 49.5137 192.257 49.4779 192.261 49.4551H192.231C192.225 49.4844 192.214 49.5218 192.197 49.5674C192.181 49.613 192.161 49.6634 192.139 49.7188C192.119 49.7708 192.095 49.8262 192.065 49.8848C192.039 49.9434 192.012 50.0003 191.982 50.0557L190.703 52.4385H192.505L192.251 50.0752Z" fill="#252525"/>
<path d="M202.393 55.207H200.977L201.865 51.0176C201.963 50.5716 202.09 50.0719 202.246 49.5186H202.207C202.161 49.6227 202.113 49.7269 202.061 49.8311C202.012 49.9352 201.963 50.0345 201.914 50.1289C201.865 50.2201 201.82 50.3031 201.777 50.3779C201.735 50.4495 201.698 50.5081 201.665 50.5537L199.79 53.1074H198.687L197.959 50.6025C197.943 50.5537 197.926 50.4772 197.91 50.373C197.897 50.2656 197.891 50.1549 197.891 50.041V49.5186H197.847C197.801 49.8245 197.756 50.1061 197.71 50.3633C197.668 50.6204 197.629 50.8369 197.593 51.0127L196.699 55.207H195.278L196.768 48.2051H198.643L199.36 50.6367C199.383 50.7148 199.404 50.7995 199.424 50.8906C199.443 50.9785 199.46 51.068 199.473 51.1592C199.486 51.2471 199.495 51.3333 199.502 51.418C199.508 51.4993 199.512 51.5726 199.512 51.6377H199.536C199.572 51.5661 199.609 51.4863 199.648 51.3984C199.691 51.3073 199.733 51.2161 199.775 51.125C199.821 51.0306 199.868 50.9411 199.917 50.8564C199.966 50.7686 200.015 50.6921 200.063 50.627L201.851 48.2051H203.882L202.393 55.207Z" fill="#252525"/>
<path d="M210.254 55.207H208.779L209.57 51.457C209.609 51.2747 209.648 51.099 209.688 50.9297C209.73 50.7604 209.771 50.6025 209.81 50.4561H209.79C209.722 50.5407 209.635 50.6416 209.531 50.7588C209.43 50.8727 209.328 50.9867 209.224 51.1006C209.129 51.2015 209.035 51.3024 208.94 51.4033C208.846 51.501 208.752 51.6019 208.657 51.7061C207.583 52.8714 206.504 54.0384 205.42 55.207H203.979L205.459 48.2051H206.934C206.797 48.8594 206.66 49.5088 206.523 50.1533C206.39 50.7946 206.255 51.4408 206.118 52.0918C206.099 52.1895 206.073 52.3018 206.04 52.4287C206.011 52.5557 205.978 52.6745 205.942 52.7852H205.962C205.991 52.7461 206.027 52.7005 206.069 52.6484C206.115 52.5964 206.162 52.5426 206.211 52.4873C206.26 52.432 206.309 52.3783 206.357 52.3262C206.406 52.2741 206.449 52.2285 206.484 52.1895C206.579 52.0885 206.672 51.9893 206.763 51.8916C206.857 51.7907 206.951 51.6914 207.046 51.5938C207.57 51.0273 208.092 50.4626 208.613 49.8994C209.134 49.3363 209.657 48.7715 210.181 48.2051H211.733L210.254 55.207Z" fill="#252525"/>
<path d="M220.547 55.207H218.955L220.146 49.582H217.363L216.177 55.207H214.59L216.069 48.2051H222.026L220.547 55.207Z" fill="#252525"/>
<path d="M229.248 51.0957C229.248 51.3757 229.224 51.6572 229.175 51.9404C229.126 52.2236 229.053 52.4987 228.955 52.7656C228.861 53.0293 228.74 53.2832 228.594 53.5273C228.451 53.7715 228.283 53.9945 228.091 54.1963C227.928 54.3688 227.751 54.5251 227.559 54.665C227.367 54.805 227.157 54.9238 226.929 55.0215C226.704 55.1191 226.46 55.194 226.196 55.2461C225.933 55.3014 225.648 55.3291 225.342 55.3291C224.88 55.3291 224.466 55.2526 224.102 55.0996C223.74 54.9466 223.434 54.7367 223.184 54.4697C222.933 54.1995 222.741 53.8805 222.607 53.5127C222.477 53.1449 222.412 52.7461 222.412 52.3164C222.412 52.0137 222.438 51.7158 222.49 51.4229C222.542 51.1266 222.62 50.8434 222.725 50.5732C222.832 50.2998 222.964 50.041 223.12 49.7969C223.28 49.5495 223.464 49.3232 223.672 49.1182C223.835 48.9619 224.01 48.8219 224.199 48.6982C224.388 48.5713 224.591 48.4622 224.81 48.3711C225.028 48.2799 225.262 48.21 225.513 48.1611C225.763 48.1123 226.032 48.0879 226.318 48.0879C226.751 48.0879 227.147 48.1562 227.505 48.293C227.866 48.4297 228.175 48.6283 228.433 48.8887C228.69 49.1458 228.89 49.4616 229.033 49.8359C229.176 50.207 229.248 50.627 229.248 51.0957ZM227.578 51.1494C227.578 50.8857 227.544 50.6497 227.476 50.4414C227.41 50.2331 227.316 50.0573 227.192 49.9141C227.069 49.7676 226.917 49.6569 226.738 49.582C226.562 49.5039 226.362 49.4648 226.138 49.4648C225.877 49.4648 225.63 49.5251 225.396 49.6455C225.161 49.766 224.953 49.9336 224.771 50.1484C224.66 50.2786 224.562 50.4284 224.478 50.5977C224.393 50.7669 224.321 50.946 224.263 51.1348C224.204 51.3236 224.159 51.5173 224.126 51.7158C224.097 51.9111 224.082 52.1048 224.082 52.2969C224.082 52.5605 224.115 52.7965 224.18 53.0049C224.248 53.2132 224.344 53.389 224.468 53.5322C224.591 53.6722 224.74 53.7796 224.912 53.8545C225.088 53.9294 225.283 53.9668 225.498 53.9668C225.765 53.9668 226.019 53.9082 226.26 53.791C226.504 53.6738 226.717 53.4997 226.899 53.2686C227.013 53.1318 227.113 52.9788 227.197 52.8096C227.282 52.637 227.352 52.458 227.407 52.2725C227.463 52.0869 227.505 51.8981 227.534 51.7061C227.563 51.514 227.578 51.3285 227.578 51.1494Z" fill="#252525"/>
<path d="M238.643 50.1973C238.643 50.5423 238.582 50.8727 238.462 51.1885C238.341 51.501 238.154 51.776 237.9 52.0137C237.646 52.2513 237.324 52.4417 236.934 52.585C236.543 52.7249 236.076 52.7949 235.532 52.7949H234.551L234.043 55.207H232.451L233.94 48.2051H236.343C236.74 48.2051 237.083 48.2572 237.373 48.3613C237.663 48.4622 237.9 48.6022 238.086 48.7812C238.275 48.957 238.415 49.167 238.506 49.4111C238.597 49.652 238.643 49.9141 238.643 50.1973ZM236.973 50.3047C236.973 50.0345 236.882 49.8197 236.699 49.6602C236.517 49.4974 236.248 49.416 235.894 49.416H235.273L234.81 51.5986H235.532C235.783 51.5986 235.998 51.5645 236.177 51.4961C236.359 51.4245 236.509 51.3301 236.626 51.2129C236.743 51.0924 236.829 50.9541 236.885 50.7979C236.943 50.6416 236.973 50.4772 236.973 50.3047Z" fill="#252525"/>
<path d="M246.851 51.252C246.851 51.4798 246.825 51.7142 246.772 51.9551C246.724 52.196 246.644 52.4303 246.533 52.6582C246.426 52.8861 246.287 53.1009 246.118 53.3027C245.952 53.5046 245.75 53.682 245.513 53.835C245.278 53.9847 245.008 54.1035 244.702 54.1914C244.396 54.2793 244.051 54.3232 243.667 54.3232H243.105L242.905 55.3145H241.396L241.606 54.3232H241.348C240.999 54.3232 240.68 54.2728 240.391 54.1719C240.104 54.0677 239.858 53.918 239.653 53.7227C239.448 53.5273 239.289 53.2865 239.175 53C239.061 52.7135 239.004 52.3848 239.004 52.0137C239.004 51.7728 239.03 51.527 239.082 51.2764C239.134 51.0257 239.215 50.7848 239.326 50.5537C239.437 50.3193 239.577 50.0996 239.746 49.8945C239.919 49.6895 240.124 49.512 240.361 49.3623C240.602 49.2093 240.877 49.0889 241.187 49.001C241.499 48.9131 241.849 48.8691 242.236 48.8691H242.798L242.954 48.0977H244.414L244.263 48.8691H244.517C244.865 48.8691 245.182 48.9196 245.469 49.0205C245.755 49.1214 246.001 49.2728 246.206 49.4746C246.411 49.6732 246.569 49.9222 246.68 50.2217C246.794 50.5179 246.851 50.8613 246.851 51.252ZM245.283 51.2764C245.283 51.0713 245.256 50.8939 245.2 50.7441C245.145 50.5911 245.067 50.4658 244.966 50.3682C244.868 50.2673 244.751 50.1924 244.614 50.1436C244.478 50.0915 244.326 50.0654 244.16 50.0654H244.009L243.359 53.1318H243.604C243.89 53.1318 244.139 53.0781 244.351 52.9707C244.562 52.86 244.736 52.7168 244.873 52.541C245.013 52.3652 245.116 52.1667 245.181 51.9453C245.249 51.724 245.283 51.501 245.283 51.2764ZM242.261 50.0654C241.974 50.0654 241.725 50.1208 241.514 50.2314C241.305 50.3389 241.131 50.4805 240.991 50.6562C240.854 50.8288 240.752 51.0257 240.684 51.2471C240.618 51.4684 240.586 51.6914 240.586 51.916C240.586 52.1211 240.614 52.3001 240.669 52.4531C240.724 52.6061 240.801 52.7331 240.898 52.834C240.999 52.9316 241.118 53.0065 241.255 53.0586C241.392 53.1074 241.541 53.1318 241.704 53.1318H241.86L242.51 50.0654H242.261Z" fill="#252525"/>
</svg>
