<svg width="76" height="73" viewBox="0 0 76 73" fill="none" xmlns="http://www.w3.org/2000/svg">
<path d="M27.6748 72.0674C26.8302 72.4897 25.8358 72.4897 24.9912 72.0674L26.333 69.3848L27.6748 72.0674ZM49.666 61.0713L27.6748 72.0674L26.333 69.3848L24.9912 72.0674L1.6582 60.4014C0.641876 59.8932 0 58.8541 0 57.7178V7.16211C7.48046e-05 6.12246 0.538463 5.15693 1.42285 4.61035C2.30729 4.06376 3.41185 4.01452 4.3418 4.47949L12.1191 8.36816C13.601 9.1091 14.2018 10.9107 13.4609 12.3926C12.72 13.8744 10.9184 14.4751 9.43652 13.7344L6 12.0156V55.8633L23.333 64.5293V46.0508C23.3332 44.3942 24.6764 43.051 26.333 43.0508C27.9897 43.0508 29.3328 44.3941 29.333 46.0508V64.5303L46.667 55.8633V46.0508C46.6672 44.3941 48.0103 43.0508 49.667 43.0508C51.3236 43.051 52.6668 44.3942 52.667 46.0508V55.8633L70 64.5293V20.6826L63.8809 17.623C62.399 16.8821 61.7982 15.0806 62.5391 13.5986C63.28 12.1168 65.0816 11.5161 66.5635 12.2568L74.3418 16.1455C75.3581 16.6537 76 17.6928 76 18.8291V69.3848C75.9999 70.4244 75.4615 71.3899 74.5771 71.9365C73.6927 72.4831 72.5882 72.5324 71.6582 72.0674L49.666 61.0713ZM46.667 15.7178C46.6669 10.3165 42.6071 6.27344 38 6.27344C33.3929 6.27344 29.3331 10.3165 29.333 15.7178C29.333 18.2622 30.4026 20.7572 32.4111 23.5391C33.945 25.6635 35.864 27.7449 38 30.0107C40.136 27.7449 42.055 25.6635 43.5889 23.5391C45.5974 20.7572 46.667 18.2622 46.667 15.7178ZM38.0391 11.9404C39.6958 11.9405 41.0391 13.2836 41.0391 14.9404C41.0389 16.5971 39.6957 17.9403 38.0391 17.9404H38C36.3433 17.9404 35.0002 16.5971 35 14.9404C35 13.2836 36.3431 11.9404 38 11.9404H38.0391ZM52.667 15.7178C52.667 20.0462 50.8196 23.7741 48.4531 27.0518C46.1203 30.2828 43.0102 33.4267 40.1885 36.4365C39.6213 37.0414 38.8292 37.3848 38 37.3848C37.1708 37.3848 36.3787 37.0414 35.8115 36.4365C32.9898 33.4267 29.8797 30.2828 27.5469 27.0518C25.1804 23.7741 23.333 20.0462 23.333 15.7178C23.3331 7.37345 29.7202 0.273438 38 0.273438C46.2798 0.273438 52.6669 7.37345 52.667 15.7178Z" fill="#498EEC"/>
</svg>
