<svg width="70" height="71" viewBox="0 0 70 71" fill="none" xmlns="http://www.w3.org/2000/svg">
<path fill-rule="evenodd" clip-rule="evenodd" d="M31.8182 16.2382C26.5464 16.2382 22.2727 20.5119 22.2727 25.7836V51.2382C22.2727 52.9955 23.6973 54.42 25.4545 54.42C27.2118 54.42 28.6364 52.9955 28.6364 51.2382V41.6927H35.0143C35.6838 41.6886 36.3555 41.61 37.0147 41.5002C38.1179 41.3163 39.6375 40.9425 41.1956 40.1636C42.7665 39.378 44.4338 38.1501 45.7014 36.2486C46.9824 34.3271 47.7273 31.9083 47.7273 28.9653C47.7273 26.0223 46.9824 23.6034 45.7014 21.682C44.4338 19.7806 42.7662 18.5526 41.1956 17.7673C39.6375 16.9882 38.1179 16.6145 37.0147 16.4307C36.3516 16.3201 35.6736 16.2385 35 16.2382H31.8182ZM28.6364 35.3291V25.7836C28.6364 24.0264 30.0609 22.6018 31.8182 22.6018L35.0013 22.6024C36.1464 22.6406 37.3285 22.9484 38.3498 23.4591C39.1656 23.867 39.8844 24.4288 40.4065 25.212C40.9153 25.9752 41.3636 27.1358 41.3636 28.9653C41.3636 30.795 40.9153 31.9554 40.4065 32.7187C39.8844 33.5021 39.1653 34.0637 38.3498 34.4716C37.3285 34.9823 36.1464 35.2903 35.001 35.3285L28.6364 35.3291Z" fill="#498EEC"/>
<path fill-rule="evenodd" clip-rule="evenodd" d="M60.4545 0.329102C65.7265 0.329102 70 4.60276 70 9.87456V60.7836C70 66.0556 65.7265 70.3291 60.4545 70.3291H9.54545C4.27366 70.3291 0 66.0556 0 60.7836V9.87456C0 4.60276 4.27366 0.329102 9.54545 0.329102H60.4545ZM60.4545 6.69274C62.2119 6.69274 63.6364 8.1173 63.6364 9.87456V60.7836C63.6364 62.541 62.2119 63.9655 60.4545 63.9655H9.54545C7.7882 63.9655 6.36364 62.541 6.36364 60.7836V9.87456C6.36364 8.1173 7.7882 6.69274 9.54545 6.69274H60.4545Z" fill="#498EEC"/>
</svg>
