<svg width="68" height="71" viewBox="0 0 68 71" fill="none" xmlns="http://www.w3.org/2000/svg">
<path fill-rule="evenodd" clip-rule="evenodd" d="M34 23.1198C27.257 23.1198 21.7907 28.5861 21.7907 35.3291C21.7907 42.0722 27.257 47.5384 34 47.5384C40.7431 47.5384 46.2093 42.0722 46.2093 35.3291C46.2093 28.5861 40.7431 23.1198 34 23.1198ZM26.6744 35.3291C26.6744 31.2834 29.9543 28.0035 34 28.0035C38.0457 28.0035 41.3256 31.2834 41.3256 35.3291C41.3256 39.3748 38.0457 42.6547 34 42.6547C29.9543 42.6547 26.6744 39.3748 26.6744 35.3291Z" fill="#498EEC"/>
<path fill-rule="evenodd" clip-rule="evenodd" d="M33.9176 0.329103C32.4707 0.32907 31.2625 0.32907 30.2708 0.396726C29.2383 0.467182 28.2632 0.619033 27.3178 1.01064C25.1239 1.91937 23.3809 3.66237 22.4722 5.85624C21.9991 6.99838 21.871 8.20205 21.8221 9.51037C21.7827 10.5621 21.252 11.4396 20.4686 11.8918C19.6854 12.3441 18.66 12.365 17.7296 11.8732C16.5721 11.2614 15.4656 10.7705 14.2399 10.6091C11.8856 10.2992 9.5046 10.9372 7.62069 12.3827C6.80882 13.0057 6.18969 13.7743 5.6125 14.6332C5.058 15.4583 4.45402 16.5045 3.73048 17.7577L3.64827 17.9001C2.9247 19.1533 2.32068 20.1995 1.88339 21.0922C1.42819 22.0215 1.07211 22.942 0.93852 23.9566C0.628567 26.3109 1.26658 28.6919 2.71213 30.5759C3.46461 31.5563 4.44282 32.2693 5.55123 32.9657C6.4426 33.5257 6.93726 34.4243 6.93719 35.3291C6.93716 36.2336 6.44251 37.1322 5.55123 37.6922C4.44269 38.3886 3.46438 39.1016 2.71183 40.0823C1.26625 41.9661 0.628274 44.3471 0.938195 46.7013C1.07178 47.7158 1.42787 48.6366 1.88306 49.5658C2.32035 50.4585 2.92437 51.5046 3.64791 52.7578L3.73015 52.9004C4.45369 54.1536 5.05768 55.1997 5.61218 56.0247C6.18937 56.8836 6.80849 57.6523 7.62036 58.2751C9.50427 59.7207 11.8853 60.3588 14.2396 60.0489C15.4652 59.8874 16.5716 59.3967 17.729 58.785C18.6597 58.293 19.6851 58.3139 20.4685 58.7664C21.2519 59.2186 21.7827 60.0961 21.8221 61.148C21.871 62.4562 21.9991 63.6599 22.4722 64.802C23.3809 66.9958 25.1239 68.739 27.3178 69.6477C28.2632 70.0393 29.2383 70.1911 30.2708 70.2614C31.2625 70.3291 32.4707 70.3291 33.9176 70.3291H34.082C35.5292 70.3291 36.7371 70.3291 37.7292 70.2614C38.7616 70.1911 39.7367 70.0393 40.6822 69.6477C42.876 68.739 44.6191 66.9958 45.5278 64.802C46.0009 63.6599 46.1289 62.4562 46.1777 61.1477C46.2171 60.0961 46.7478 59.2186 47.5311 58.7661C48.3145 58.3138 49.3401 58.293 50.2706 58.7846C51.428 59.3964 52.5344 59.8874 53.7602 60.0485C56.1144 60.3585 58.4954 59.7207 60.3792 58.2751C61.1912 57.6519 61.8102 56.8836 62.3874 56.0247C62.9419 55.1997 63.5458 54.1536 64.2693 52.9004L64.3517 52.7578C65.0751 51.5046 65.6794 50.4582 66.1166 49.5655C66.5718 48.6363 66.9277 47.7158 67.0615 46.7013C67.3714 44.3467 66.7333 41.9658 65.2877 40.0819C64.5353 39.1013 63.5569 38.3886 62.4486 37.6922C61.5572 37.1322 61.0626 36.2336 61.0626 35.3288C61.0626 34.4243 61.5572 33.526 62.4483 32.966C63.5572 32.2696 64.5356 31.5569 65.288 30.5759C66.7336 28.6921 67.3717 26.3111 67.0618 23.9568C66.928 22.9422 66.5721 22.0217 66.117 21.0924C65.6797 20.1998 65.0757 19.1537 64.352 17.9006L64.2699 17.7581C63.5462 16.5048 62.9422 15.4585 62.3877 14.6334C61.8105 13.7745 61.1916 13.0059 60.3796 12.3829C58.4957 10.9374 56.1148 10.2994 53.7602 10.6093C52.5347 10.7707 51.4283 11.2615 50.2709 11.8733C49.3404 12.3652 48.3148 12.3442 47.5315 11.8919C46.7481 11.4397 46.2171 10.562 46.1777 9.51021C46.1289 8.20192 46.0009 6.99831 45.5278 5.85624C44.6191 3.66237 42.876 1.91937 40.6822 1.01064C39.7367 0.619033 38.7616 0.467182 37.7292 0.396726C36.7371 0.32907 35.5292 0.32907 34.082 0.329103H33.9176ZM29.1866 5.52261C29.4379 5.41856 29.8195 5.32261 30.6032 5.26912C31.409 5.21416 32.4496 5.21282 34 5.21282C35.5504 5.21282 36.591 5.21416 37.3964 5.26912C38.1804 5.32261 38.562 5.41856 38.813 5.52261C39.8103 5.93568 40.6028 6.72795 41.0156 7.72517C41.1462 8.03972 41.2539 8.53008 41.2976 9.69273C41.3939 12.2726 42.7256 14.7566 45.0896 16.1214C47.4533 17.4862 50.2706 17.3974 52.5529 16.191C53.5814 15.6474 54.0603 15.4957 54.3976 15.4513C55.4678 15.3104 56.5501 15.6004 57.4064 16.2575C57.6222 16.423 57.896 16.7055 58.3343 17.3575C58.7849 18.0278 59.3061 18.9283 60.0813 20.271C60.8565 21.6137 61.3758 22.5155 61.7311 23.2407C62.0765 23.9462 62.1843 24.3247 62.2197 24.5943C62.3607 25.6644 62.0706 26.7467 61.4136 27.603C61.2062 27.8731 60.8357 28.2119 59.8502 28.8308C57.6645 30.2044 56.1792 32.5994 56.1789 35.3288C56.1789 38.0584 57.6642 40.4538 59.8502 41.8274C60.8354 42.4463 61.2059 42.7849 61.4133 43.0551C62.0703 43.9114 62.3604 44.9937 62.2194 46.0638C62.1839 46.3334 62.0762 46.7118 61.7307 47.4173C61.3755 48.1424 60.8562 49.0442 60.081 50.3869C59.3058 51.7296 58.7845 52.6302 58.3339 53.3005C57.8957 53.9524 57.6219 54.235 57.406 54.4004C56.5497 55.0577 55.4675 55.3475 54.3973 55.2068C54.06 55.1622 53.5811 55.0105 52.5526 54.4671C50.2703 53.2605 47.453 53.1719 45.089 54.5368C42.7256 55.9016 41.3939 58.3855 41.2976 60.9654C41.2539 62.128 41.1462 62.6184 41.0156 62.9332C40.6028 63.9301 39.8103 64.7226 38.813 65.1357C38.562 65.2396 38.1804 65.3357 37.3964 65.3891C36.591 65.4441 35.5504 65.4454 34 65.4454C32.4496 65.4454 31.409 65.4441 30.6032 65.3891C29.8195 65.3357 29.4379 65.2396 29.1866 65.1357C28.1896 64.7226 27.3972 63.9301 26.9842 62.9332C26.8539 62.6184 26.7459 62.128 26.7024 60.9654C26.6059 58.3858 25.2743 55.9016 22.9103 54.5368C20.5464 53.1719 17.7294 53.2608 15.447 54.4671C14.4184 55.0108 13.9397 55.1625 13.6021 55.2068C12.532 55.3478 11.4497 55.0577 10.5934 54.4007C10.3777 54.2353 10.1038 53.9527 9.66557 53.3005C9.21512 52.6305 8.69371 51.7299 7.9185 50.3872C7.14326 49.0445 6.62415 48.1427 6.26891 47.4176C5.92333 46.7121 5.81563 46.3334 5.78014 46.0638C5.63926 44.9937 5.92926 43.9114 6.58635 43.0551C6.79361 42.7852 7.16429 42.4463 8.14947 41.8274C10.3354 40.4541 11.8208 38.0588 11.8209 35.3294C11.8211 32.5994 10.3356 30.2041 8.1495 28.8305C7.16455 28.2115 6.79391 27.8729 6.58664 27.6028C5.92958 26.7465 5.63959 25.6642 5.78047 24.594C5.81596 24.3245 5.92366 23.946 6.26923 23.2405C6.62447 22.5152 7.14358 21.6135 7.91879 20.2707C8.69403 18.928 9.21542 18.0276 9.66589 17.3573C10.1041 16.7053 10.378 16.4228 10.5937 16.2573C11.45 15.6002 12.5323 15.3102 13.6024 15.4511C13.94 15.4955 14.4187 15.6472 15.4475 16.1909C17.7298 17.3972 20.5467 17.486 22.9105 16.1213C25.2743 14.7565 26.6059 12.2726 26.7024 9.69289C26.7459 8.53014 26.8539 8.03975 26.9842 7.72517C27.3972 6.72795 28.1896 5.93568 29.1866 5.52261Z" fill="#498EEC"/>
</svg>
