<svg width="279" height="47" viewBox="0 0 279 47" fill="none" xmlns="http://www.w3.org/2000/svg">
<path d="M16.5781 46.501C5.91146 46.501 0.578125 39.0114 0.578125 24.0322C0.578125 16.2614 2.01562 10.3447 4.89062 6.28223C7.78646 2.19889 11.974 0.157227 17.4531 0.157227C27.8698 0.157227 33.0781 7.77181 33.0781 23.001C33.0781 30.5843 31.651 36.3968 28.7969 40.4385C25.9635 44.4801 21.8906 46.501 16.5781 46.501ZM17.0156 7.68848C12.7448 7.68848 10.6094 13.0531 10.6094 23.7822C10.6094 33.8864 12.7031 38.9385 16.8906 38.9385C20.974 38.9385 23.0156 33.7301 23.0156 23.3135C23.0156 12.8968 21.0156 7.68848 17.0156 7.68848Z" fill="#252525"/>
<path d="M64.9844 0.907227V29.1572H70.3594V36.5322H64.9844V45.7197H55.9844V36.5322H36.4531V28.8135C38.1823 26.876 39.974 24.7614 41.8281 22.4697C43.6823 20.1572 45.474 17.7822 47.2031 15.3447C48.9323 12.9072 50.5365 10.4593 52.0156 8.00098C53.5156 5.52181 54.7865 3.15723 55.8281 0.907227H64.9844ZM45.2969 29.1572H55.9844V13.501C55.2552 14.8551 54.4635 16.2301 53.6094 17.626C52.7552 19.001 51.8594 20.3656 50.9219 21.7197C49.9844 23.0531 49.0365 24.3551 48.0781 25.626C47.1198 26.876 46.1927 28.0531 45.2969 29.1572Z" fill="#252525"/>
<path d="M272.922 24.7197C275.959 24.7197 278.422 22.2573 278.422 19.2197C278.422 16.1822 275.959 13.7197 272.922 13.7197C269.884 13.7197 267.422 16.1822 267.422 19.2197C267.422 22.2573 269.884 24.7197 272.922 24.7197Z" fill="#498EEC"/>
<path d="M77.4219 18.2197C76.5934 18.2197 75.9219 18.8913 75.9219 19.7197C75.9219 20.5482 76.5934 21.2197 77.4219 21.2197H80.4844C81.3128 21.2197 81.9844 20.5482 81.9844 19.7197C81.9844 18.8913 81.3128 18.2197 80.4844 18.2197H77.4219Z" fill="#498EEC"/>
<path d="M86.6094 18.2197C85.7809 18.2197 85.1094 18.8913 85.1094 19.7197C85.1094 20.5482 85.7809 21.2197 86.6094 21.2197H92.7344C93.5628 21.2197 94.2344 20.5482 94.2344 19.7197C94.2344 18.8913 93.5628 18.2197 92.7344 18.2197H86.6094Z" fill="#498EEC"/>
<path d="M98.8594 18.2197C98.0309 18.2197 97.3594 18.8913 97.3594 19.7197C97.3594 20.5482 98.0309 21.2197 98.8594 21.2197H104.984C105.813 21.2197 106.484 20.5482 106.484 19.7197C106.484 18.8913 105.813 18.2197 104.984 18.2197H98.8594Z" fill="#498EEC"/>
<path d="M111.109 18.2197C110.281 18.2197 109.609 18.8913 109.609 19.7197C109.609 20.5482 110.281 21.2197 111.109 21.2197H117.234C118.063 21.2197 118.734 20.5482 118.734 19.7197C118.734 18.8913 118.063 18.2197 117.234 18.2197H111.109Z" fill="#498EEC"/>
<path d="M123.359 18.2197C122.531 18.2197 121.859 18.8913 121.859 19.7197C121.859 20.5482 122.531 21.2197 123.359 21.2197H129.484C130.313 21.2197 130.984 20.5482 130.984 19.7197C130.984 18.8913 130.313 18.2197 129.484 18.2197H123.359Z" fill="#498EEC"/>
<path d="M135.609 18.2197C134.781 18.2197 134.109 18.8913 134.109 19.7197C134.109 20.5482 134.781 21.2197 135.609 21.2197H141.734C142.563 21.2197 143.234 20.5482 143.234 19.7197C143.234 18.8913 142.563 18.2197 141.734 18.2197H135.609Z" fill="#498EEC"/>
<path d="M147.859 18.2197C147.031 18.2197 146.359 18.8913 146.359 19.7197C146.359 20.5482 147.031 21.2197 147.859 21.2197H153.984C154.813 21.2197 155.484 20.5482 155.484 19.7197C155.484 18.8913 154.813 18.2197 153.984 18.2197H147.859Z" fill="#498EEC"/>
<path d="M160.109 18.2197C159.281 18.2197 158.609 18.8913 158.609 19.7197C158.609 20.5482 159.281 21.2197 160.109 21.2197H166.234C167.063 21.2197 167.734 20.5482 167.734 19.7197C167.734 18.8913 167.063 18.2197 166.234 18.2197H160.109Z" fill="#498EEC"/>
<path d="M172.359 18.2197C171.531 18.2197 170.859 18.8913 170.859 19.7197C170.859 20.5482 171.531 21.2197 172.359 21.2197H178.484C179.313 21.2197 179.984 20.5482 179.984 19.7197C179.984 18.8913 179.313 18.2197 178.484 18.2197H172.359Z" fill="#498EEC"/>
<path d="M184.609 18.2197C183.781 18.2197 183.109 18.8913 183.109 19.7197C183.109 20.5482 183.781 21.2197 184.609 21.2197H190.734C191.563 21.2197 192.234 20.5482 192.234 19.7197C192.234 18.8913 191.563 18.2197 190.734 18.2197H184.609Z" fill="#498EEC"/>
<path d="M196.859 18.2197C196.031 18.2197 195.359 18.8913 195.359 19.7197C195.359 20.5482 196.031 21.2197 196.859 21.2197H202.984C203.813 21.2197 204.484 20.5482 204.484 19.7197C204.484 18.8913 203.813 18.2197 202.984 18.2197H196.859Z" fill="#498EEC"/>
<path d="M209.109 18.2197C208.281 18.2197 207.609 18.8913 207.609 19.7197C207.609 20.5482 208.281 21.2197 209.109 21.2197H215.234C216.063 21.2197 216.734 20.5482 216.734 19.7197C216.734 18.8913 216.063 18.2197 215.234 18.2197H209.109Z" fill="#498EEC"/>
<path d="M221.359 18.2197C220.531 18.2197 219.859 18.8913 219.859 19.7197C219.859 20.5482 220.531 21.2197 221.359 21.2197H227.484C228.313 21.2197 228.984 20.5482 228.984 19.7197C228.984 18.8913 228.313 18.2197 227.484 18.2197H221.359Z" fill="#498EEC"/>
<path d="M233.609 18.2197C232.781 18.2197 232.109 18.8913 232.109 19.7197C232.109 20.5482 232.781 21.2197 233.609 21.2197H239.734C240.563 21.2197 241.234 20.5482 241.234 19.7197C241.234 18.8913 240.563 18.2197 239.734 18.2197H233.609Z" fill="#498EEC"/>
<path d="M245.859 18.2197C245.031 18.2197 244.359 18.8913 244.359 19.7197C244.359 20.5482 245.031 21.2197 245.859 21.2197H251.984C252.813 21.2197 253.484 20.5482 253.484 19.7197C253.484 18.8913 252.813 18.2197 251.984 18.2197H245.859Z" fill="#498EEC"/>
<path d="M258.109 18.2197C257.281 18.2197 256.609 18.8913 256.609 19.7197C256.609 20.5482 257.281 21.2197 258.109 21.2197H264.234C265.063 21.2197 265.734 20.5482 265.734 19.7197C265.734 18.8913 265.063 18.2197 264.234 18.2197H258.109Z" fill="#498EEC"/>
</svg>
