<svg width="279" height="47" viewBox="0 0 279 47" fill="none" xmlns="http://www.w3.org/2000/svg">
<path d="M16.5781 46.626C5.91146 46.626 0.578125 39.1364 0.578125 24.1572C0.578125 16.3864 2.01562 10.4697 4.89062 6.40723C7.78646 2.32389 11.974 0.282227 17.4531 0.282227C27.8698 0.282227 33.0781 7.89681 33.0781 23.126C33.0781 30.7093 31.651 36.5218 28.7969 40.5635C25.9635 44.6051 21.8906 46.626 16.5781 46.626ZM17.0156 7.81348C12.7448 7.81348 10.6094 13.1781 10.6094 23.9072C10.6094 34.0114 12.7031 39.0635 16.8906 39.0635C20.974 39.0635 23.0156 33.8551 23.0156 23.4385C23.0156 13.0218 21.0156 7.81348 17.0156 7.81348Z" fill="#252525"/>
<path d="M61.2344 0.0322266V45.8447H51.3906V11.1572C50.849 11.6364 50.2031 12.0947 49.4531 12.5322C48.724 12.9489 47.9427 13.3343 47.1094 13.6885C46.276 14.0218 45.4115 14.3135 44.5156 14.5635C43.6198 14.7926 42.7344 14.9593 41.8594 15.0635V6.75098C44.4219 6.00098 46.8385 5.04264 49.1094 3.87598C51.3802 2.70931 53.4323 1.42806 55.2656 0.0322266H61.2344Z" fill="#252525"/>
<path d="M272.922 24.8447C275.959 24.8447 278.422 22.3823 278.422 19.3447C278.422 16.3072 275.959 13.8447 272.922 13.8447C269.884 13.8447 267.422 16.3072 267.422 19.3447C267.422 22.3823 269.884 24.8447 272.922 24.8447Z" fill="#498EEC"/>
<path d="M77.4219 18.3447C76.5934 18.3447 75.9219 19.0163 75.9219 19.8447C75.9219 20.6732 76.5934 21.3447 77.4219 21.3447H80.4844C81.3128 21.3447 81.9844 20.6732 81.9844 19.8447C81.9844 19.0163 81.3128 18.3447 80.4844 18.3447H77.4219Z" fill="#498EEC"/>
<path d="M86.6094 18.3447C85.7809 18.3447 85.1094 19.0163 85.1094 19.8447C85.1094 20.6732 85.7809 21.3447 86.6094 21.3447H92.7344C93.5628 21.3447 94.2344 20.6732 94.2344 19.8447C94.2344 19.0163 93.5628 18.3447 92.7344 18.3447H86.6094Z" fill="#498EEC"/>
<path d="M98.8594 18.3447C98.0309 18.3447 97.3594 19.0163 97.3594 19.8447C97.3594 20.6732 98.0309 21.3447 98.8594 21.3447H104.984C105.813 21.3447 106.484 20.6732 106.484 19.8447C106.484 19.0163 105.813 18.3447 104.984 18.3447H98.8594Z" fill="#498EEC"/>
<path d="M111.109 18.3447C110.281 18.3447 109.609 19.0163 109.609 19.8447C109.609 20.6732 110.281 21.3447 111.109 21.3447H117.234C118.063 21.3447 118.734 20.6732 118.734 19.8447C118.734 19.0163 118.063 18.3447 117.234 18.3447H111.109Z" fill="#498EEC"/>
<path d="M123.359 18.3447C122.531 18.3447 121.859 19.0163 121.859 19.8447C121.859 20.6732 122.531 21.3447 123.359 21.3447H129.484C130.313 21.3447 130.984 20.6732 130.984 19.8447C130.984 19.0163 130.313 18.3447 129.484 18.3447H123.359Z" fill="#498EEC"/>
<path d="M135.609 18.3447C134.781 18.3447 134.109 19.0163 134.109 19.8447C134.109 20.6732 134.781 21.3447 135.609 21.3447H141.734C142.563 21.3447 143.234 20.6732 143.234 19.8447C143.234 19.0163 142.563 18.3447 141.734 18.3447H135.609Z" fill="#498EEC"/>
<path d="M147.859 18.3447C147.031 18.3447 146.359 19.0163 146.359 19.8447C146.359 20.6732 147.031 21.3447 147.859 21.3447H153.984C154.813 21.3447 155.484 20.6732 155.484 19.8447C155.484 19.0163 154.813 18.3447 153.984 18.3447H147.859Z" fill="#498EEC"/>
<path d="M160.109 18.3447C159.281 18.3447 158.609 19.0163 158.609 19.8447C158.609 20.6732 159.281 21.3447 160.109 21.3447H166.234C167.063 21.3447 167.734 20.6732 167.734 19.8447C167.734 19.0163 167.063 18.3447 166.234 18.3447H160.109Z" fill="#498EEC"/>
<path d="M172.359 18.3447C171.531 18.3447 170.859 19.0163 170.859 19.8447C170.859 20.6732 171.531 21.3447 172.359 21.3447H178.484C179.313 21.3447 179.984 20.6732 179.984 19.8447C179.984 19.0163 179.313 18.3447 178.484 18.3447H172.359Z" fill="#498EEC"/>
<path d="M184.609 18.3447C183.781 18.3447 183.109 19.0163 183.109 19.8447C183.109 20.6732 183.781 21.3447 184.609 21.3447H190.734C191.563 21.3447 192.234 20.6732 192.234 19.8447C192.234 19.0163 191.563 18.3447 190.734 18.3447H184.609Z" fill="#498EEC"/>
<path d="M196.859 18.3447C196.031 18.3447 195.359 19.0163 195.359 19.8447C195.359 20.6732 196.031 21.3447 196.859 21.3447H202.984C203.813 21.3447 204.484 20.6732 204.484 19.8447C204.484 19.0163 203.813 18.3447 202.984 18.3447H196.859Z" fill="#498EEC"/>
<path d="M209.109 18.3447C208.281 18.3447 207.609 19.0163 207.609 19.8447C207.609 20.6732 208.281 21.3447 209.109 21.3447H215.234C216.063 21.3447 216.734 20.6732 216.734 19.8447C216.734 19.0163 216.063 18.3447 215.234 18.3447H209.109Z" fill="#498EEC"/>
<path d="M221.359 18.3447C220.531 18.3447 219.859 19.0163 219.859 19.8447C219.859 20.6732 220.531 21.3447 221.359 21.3447H227.484C228.313 21.3447 228.984 20.6732 228.984 19.8447C228.984 19.0163 228.313 18.3447 227.484 18.3447H221.359Z" fill="#498EEC"/>
<path d="M233.609 18.3447C232.781 18.3447 232.109 19.0163 232.109 19.8447C232.109 20.6732 232.781 21.3447 233.609 21.3447H239.734C240.563 21.3447 241.234 20.6732 241.234 19.8447C241.234 19.0163 240.563 18.3447 239.734 18.3447H233.609Z" fill="#498EEC"/>
<path d="M245.859 18.3447C245.031 18.3447 244.359 19.0163 244.359 19.8447C244.359 20.6732 245.031 21.3447 245.859 21.3447H251.984C252.813 21.3447 253.484 20.6732 253.484 19.8447C253.484 19.0163 252.813 18.3447 251.984 18.3447H245.859Z" fill="#498EEC"/>
<path d="M258.109 18.3447C257.281 18.3447 256.609 19.0163 256.609 19.8447C256.609 20.6732 257.281 21.3447 258.109 21.3447H264.234C265.063 21.3447 265.734 20.6732 265.734 19.8447C265.734 19.0163 265.063 18.3447 264.234 18.3447H258.109Z" fill="#498EEC"/>
</svg>
