<svg width="279" height="47" viewBox="0 0 279 47" fill="none" xmlns="http://www.w3.org/2000/svg">
<path d="M16.5781 46.501C5.91146 46.501 0.578125 39.0114 0.578125 24.0322C0.578125 16.2614 2.01562 10.3447 4.89062 6.28223C7.78646 2.19889 11.974 0.157227 17.4531 0.157227C27.8698 0.157227 33.0781 7.77181 33.0781 23.001C33.0781 30.5843 31.651 36.3968 28.7969 40.4385C25.9635 44.4801 21.8906 46.501 16.5781 46.501ZM17.0156 7.68848C12.7448 7.68848 10.6094 13.0531 10.6094 23.7822C10.6094 33.8864 12.7031 38.9385 16.8906 38.9385C20.974 38.9385 23.0156 33.7301 23.0156 23.3135C23.0156 12.8968 21.0156 7.68848 17.0156 7.68848Z" fill="#252525"/>
<path d="M38.8906 44.251V35.6572C41.8906 37.8447 45.3906 38.9385 49.3906 38.9385C51.9115 38.9385 53.8698 38.3968 55.2656 37.3135C56.6823 36.2301 57.3906 34.7197 57.3906 32.7822C57.3906 30.7822 56.5156 29.2406 54.7656 28.1572C53.0365 27.0739 50.651 26.5322 47.6094 26.5322H43.4531V18.9697H47.2969C53.1302 18.9697 56.0469 17.0322 56.0469 13.1572C56.0469 9.51139 53.8073 7.68848 49.3281 7.68848C46.3281 7.68848 43.4115 8.65723 40.5781 10.5947V2.53223C43.724 0.948893 47.3906 0.157227 51.5781 0.157227C56.1615 0.157227 59.724 1.18848 62.2656 3.25098C64.8281 5.31348 66.1094 7.99056 66.1094 11.2822C66.1094 17.1364 63.1406 20.8031 57.2031 22.2822V22.4385C60.3698 22.8343 62.8698 23.9906 64.7031 25.9072C66.5365 27.8031 67.4531 30.1364 67.4531 32.9072C67.4531 37.0947 65.9219 40.4072 62.8594 42.8447C59.7969 45.2822 55.5677 46.501 50.1719 46.501C45.5469 46.501 41.7865 45.751 38.8906 44.251Z" fill="#252525"/>
<path d="M272.922 13.7197C275.959 13.7197 278.422 16.1822 278.422 19.2197C278.422 22.2573 275.959 24.7197 272.922 24.7197C269.884 24.7197 267.422 22.2573 267.422 19.2197C267.422 16.1822 269.884 13.7197 272.922 13.7197Z" fill="#498EEC"/>
<path d="M80.4844 18.2197C81.3128 18.2197 81.9844 18.8913 81.9844 19.7197C81.9844 20.5482 81.3128 21.2197 80.4844 21.2197H77.4219C76.5934 21.2197 75.9219 20.5482 75.9219 19.7197C75.9219 18.8913 76.5934 18.2197 77.4219 18.2197H80.4844Z" fill="#498EEC"/>
<path d="M92.7344 18.2197C93.5628 18.2197 94.2344 18.8913 94.2344 19.7197C94.2344 20.5482 93.5628 21.2197 92.7344 21.2197H86.6094C85.7809 21.2197 85.1094 20.5482 85.1094 19.7197C85.1094 18.8913 85.7809 18.2197 86.6094 18.2197H92.7344Z" fill="#498EEC"/>
<path d="M104.984 18.2197C105.813 18.2197 106.484 18.8913 106.484 19.7197C106.484 20.5482 105.813 21.2197 104.984 21.2197H98.8594C98.0309 21.2197 97.3594 20.5482 97.3594 19.7197C97.3594 18.8913 98.0309 18.2197 98.8594 18.2197H104.984Z" fill="#498EEC"/>
<path d="M117.234 18.2197C118.063 18.2197 118.734 18.8913 118.734 19.7197C118.734 20.5482 118.063 21.2197 117.234 21.2197H111.109C110.281 21.2197 109.609 20.5482 109.609 19.7197C109.609 18.8913 110.281 18.2197 111.109 18.2197H117.234Z" fill="#498EEC"/>
<path d="M129.484 18.2197C130.313 18.2197 130.984 18.8913 130.984 19.7197C130.984 20.5482 130.313 21.2197 129.484 21.2197H123.359C122.531 21.2197 121.859 20.5482 121.859 19.7197C121.859 18.8913 122.531 18.2197 123.359 18.2197H129.484Z" fill="#498EEC"/>
<path d="M141.734 18.2197C142.563 18.2197 143.234 18.8913 143.234 19.7197C143.234 20.5482 142.563 21.2197 141.734 21.2197H135.609C134.781 21.2197 134.109 20.5482 134.109 19.7197C134.109 18.8913 134.781 18.2197 135.609 18.2197H141.734Z" fill="#498EEC"/>
<path d="M153.984 18.2197C154.813 18.2197 155.484 18.8913 155.484 19.7197C155.484 20.5482 154.813 21.2197 153.984 21.2197H147.859C147.031 21.2197 146.359 20.5482 146.359 19.7197C146.359 18.8913 147.031 18.2197 147.859 18.2197H153.984Z" fill="#498EEC"/>
<path d="M166.234 18.2197C167.063 18.2197 167.734 18.8913 167.734 19.7197C167.734 20.5482 167.063 21.2197 166.234 21.2197H160.109C159.281 21.2197 158.609 20.5482 158.609 19.7197C158.609 18.8913 159.281 18.2197 160.109 18.2197H166.234Z" fill="#498EEC"/>
<path d="M178.484 18.2197C179.313 18.2197 179.984 18.8913 179.984 19.7197C179.984 20.5482 179.313 21.2197 178.484 21.2197H172.359C171.531 21.2197 170.859 20.5482 170.859 19.7197C170.859 18.8913 171.531 18.2197 172.359 18.2197H178.484Z" fill="#498EEC"/>
<path d="M190.734 18.2197C191.563 18.2197 192.234 18.8913 192.234 19.7197C192.234 20.5482 191.563 21.2197 190.734 21.2197H184.609C183.781 21.2197 183.109 20.5482 183.109 19.7197C183.109 18.8913 183.781 18.2197 184.609 18.2197H190.734Z" fill="#498EEC"/>
<path d="M202.984 18.2197C203.813 18.2197 204.484 18.8913 204.484 19.7197C204.484 20.5482 203.813 21.2197 202.984 21.2197H196.859C196.031 21.2197 195.359 20.5482 195.359 19.7197C195.359 18.8913 196.031 18.2197 196.859 18.2197H202.984Z" fill="#498EEC"/>
<path d="M215.234 18.2197C216.063 18.2197 216.734 18.8913 216.734 19.7197C216.734 20.5482 216.063 21.2197 215.234 21.2197H209.109C208.281 21.2197 207.609 20.5482 207.609 19.7197C207.609 18.8913 208.281 18.2197 209.109 18.2197H215.234Z" fill="#498EEC"/>
<path d="M227.484 18.2197C228.313 18.2197 228.984 18.8913 228.984 19.7197C228.984 20.5482 228.313 21.2197 227.484 21.2197H221.359C220.531 21.2197 219.859 20.5482 219.859 19.7197C219.859 18.8913 220.531 18.2197 221.359 18.2197H227.484Z" fill="#498EEC"/>
<path d="M239.734 18.2197C240.563 18.2197 241.234 18.8913 241.234 19.7197C241.234 20.5482 240.563 21.2197 239.734 21.2197H233.609C232.781 21.2197 232.109 20.5482 232.109 19.7197C232.109 18.8913 232.781 18.2197 233.609 18.2197H239.734Z" fill="#498EEC"/>
<path d="M251.984 18.2197C252.813 18.2197 253.484 18.8913 253.484 19.7197C253.484 20.5482 252.813 21.2197 251.984 21.2197H245.859C245.031 21.2197 244.359 20.5482 244.359 19.7197C244.359 18.8913 245.031 18.2197 245.859 18.2197H251.984Z" fill="#498EEC"/>
<path d="M264.234 18.2197C265.063 18.2197 265.734 18.8913 265.734 19.7197C265.734 20.5482 265.063 21.2197 264.234 21.2197H258.109C257.281 21.2197 256.609 20.5482 256.609 19.7197C256.609 18.8913 257.281 18.2197 258.109 18.2197H264.234Z" fill="#498EEC"/>
</svg>
