<svg width="30" height="31" viewBox="0 0 30 31" fill="none" xmlns="http://www.w3.org/2000/svg">
<path fill-rule="evenodd" clip-rule="evenodd" d="M30 15.5226C30 23.8068 23.2842 30.5226 15 30.5226C6.71572 30.5226 0 23.8068 0 15.5226C0 7.23835 6.71572 0.522629 15 0.522629C23.2842 0.522629 30 7.23835 30 15.5226ZM15.5375 11.5963C14.0786 12.2031 11.1627 13.4591 6.78986 15.3642C6.07977 15.6467 5.7078 15.923 5.67394 16.193C5.61672 16.6496 6.18839 16.8293 6.96682 17.0741C7.07272 17.1074 7.18243 17.1419 7.2949 17.1783C8.06077 17.4273 9.09102 17.7186 9.6266 17.7302C10.1124 17.7407 10.6546 17.5404 11.2533 17.1293C15.339 14.3714 17.448 12.9774 17.5803 12.9473C17.6737 12.9261 17.8032 12.8994 17.891 12.9774C17.9787 13.0554 17.97 13.203 17.9607 13.2426C17.9042 13.4841 15.6602 15.5703 14.4988 16.6499C14.1369 16.9865 13.8801 17.2251 13.8276 17.2797C13.71 17.4018 13.5901 17.5173 13.475 17.6283C12.7635 18.3143 12.2298 18.8286 13.5045 19.6686C14.1171 20.0723 14.6072 20.406 15.0962 20.739C15.6302 21.1028 16.1628 21.4655 16.8521 21.9173C17.0275 22.0323 17.1952 22.1519 17.3586 22.2683C17.9801 22.7114 18.5383 23.1095 19.2282 23.0459C19.629 23.0091 20.043 22.6322 20.2533 21.5081C20.7502 18.8516 21.7271 13.0956 21.9528 10.7238C21.9726 10.516 21.9477 10.2501 21.9277 10.1334C21.9076 10.0166 21.866 9.85026 21.7142 9.72712C21.5345 9.58129 21.2571 9.55054 21.1329 9.55263C20.5688 9.56268 19.7031 9.86365 15.5375 11.5963Z" fill="#498EEC"/>
</svg>
