<svg width="80" height="65" viewBox="0 0 80 65" fill="none" xmlns="http://www.w3.org/2000/svg">
<path d="M49.9092 53.6975C51.5639 53.6975 52.9054 52.3564 52.9054 50.7012C52.9054 49.0465 51.5639 47.705 49.9092 47.705V53.6975ZM27.3175 47.705C25.6627 47.705 24.3212 49.0465 24.3212 50.7012C24.3212 52.3564 25.6627 53.6975 27.3175 53.6975V47.705ZM46.9129 50.7012C46.9129 52.3564 48.2544 53.6975 49.9092 53.6975C51.5639 53.6975 52.9054 52.3564 52.9054 50.7012H46.9129ZM52.9054 29.6596C52.9054 28.0049 51.5639 26.6634 49.9092 26.6634C48.2544 26.6634 46.9129 28.0049 46.9129 29.6596H52.9054ZM49.9092 47.705C48.2544 47.705 46.9129 49.0465 46.9129 50.7012C46.9129 52.3564 48.2544 53.6975 49.9092 53.6975V47.705ZM50.9063 53.6975C52.5611 53.6975 53.9026 52.3564 53.9026 50.7012C53.9026 49.0465 52.5611 47.705 50.9063 47.705V53.6975ZM67.9538 47.7054C66.299 47.7126 64.9635 49.0597 64.9707 50.7144C64.9779 52.3692 66.3254 53.7051 67.9801 53.6975L67.9538 47.7054ZM77.0036 41.349L79.9999 41.3354C79.9991 41.1628 79.9835 40.991 79.9531 40.8212L77.0036 41.349ZM77.8614 29.1319C77.5697 27.5031 76.0133 26.4189 74.3841 26.7105C72.7553 27.0017 71.6711 28.5586 71.9627 30.1878L77.8614 29.1319ZM49.9052 7.95901C48.2505 7.95901 46.9089 9.30045 46.9089 10.9553C46.9089 12.61 48.2505 13.9515 49.9052 13.9515V7.95901ZM64.2045 10.9553V13.9515C64.2244 13.9515 64.2448 13.9513 64.2652 13.9509L64.2045 10.9553ZM73.2371 20.3075L70.2421 20.2222C70.2361 20.4273 70.2513 20.6325 70.2876 20.8345L73.2371 20.3075ZM71.9584 30.187C72.2496 31.8157 73.806 32.9004 75.4352 32.6095C77.064 32.3183 78.1522 30.761 77.8614 29.1319L71.9584 30.187ZM52.8974 10.9553C52.8974 9.30045 51.5603 7.95901 49.9052 7.95901C48.2505 7.95901 46.9089 9.30045 46.9089 10.9553H52.8974ZM46.9049 29.6596C46.9049 31.3147 48.2465 32.6559 49.9012 32.6559C51.5563 32.6559 52.8974 31.3147 52.8974 29.6596H46.9049ZM46.9089 10.9553C46.9089 12.61 48.2505 13.9515 49.9052 13.9515C51.5603 13.9515 52.8974 12.61 52.8974 10.9553H46.9089ZM49.9012 7.75926H52.8978L52.8974 7.73777L49.9012 7.75926ZM45.6477 3.45665V6.45294L45.6677 6.45282L45.6477 3.45665ZM7.2615 3.45665L7.23306 6.4529H7.2615V3.45665ZM2.99637 7.75127L0.000120013 7.72446V7.75127H2.99637ZM2.99637 46.4026H0L0.000240025 46.4298L2.99637 46.4026ZM7.2615 50.6973V47.701L7.23306 47.7014L7.2615 50.6973ZM10.2686 53.6935C11.9233 53.6935 13.2648 52.3524 13.2648 50.6973C13.2648 49.0425 11.9233 47.701 10.2686 47.701V53.6935ZM49.9092 26.6634C48.2544 26.6634 46.9129 28.0049 46.9129 29.6596C46.9129 31.3147 48.2544 32.6559 49.9092 32.6559V26.6634ZM74.9158 32.6559C76.5706 32.6559 77.9121 31.3147 77.9121 29.6596C77.9121 28.0049 76.5706 26.6634 74.9158 26.6634V32.6559ZM49.9092 47.705H27.3175V53.6975H49.9092V47.705ZM52.9054 50.7012V29.6596H46.9129V50.7012H52.9054ZM49.9092 53.6975H50.9063V47.705H49.9092V53.6975ZM67.9801 53.6975C71.2077 53.6835 74.281 52.354 76.529 50.0273L72.2196 45.8633C71.0779 47.045 69.5418 47.6982 67.9538 47.7054L67.9801 53.6975ZM76.529 50.0273C78.7746 47.7034 80.0146 44.5753 79.9999 41.3354L74.0074 41.3629C74.0154 43.0616 73.3638 44.6792 72.2196 45.8633L76.529 50.0273ZM79.9531 40.8212L77.8614 29.1319L71.9627 30.1878L74.0541 41.8771L79.9531 40.8212ZM49.9052 13.9515H64.2045V7.95901H49.9052V13.9515ZM64.2652 13.9509C65.844 13.9189 67.3833 14.5509 68.5199 15.7274L72.8301 11.5643C70.5525 9.20613 67.4144 7.89329 64.1433 7.95961L64.2652 13.9509ZM68.5199 15.7274C69.6588 16.9068 70.29 18.5302 70.2421 20.2222L76.2322 20.3928C76.3257 17.1117 75.1048 13.9196 72.8301 11.5643L68.5199 15.7274ZM70.2876 20.8345L71.9584 30.187L77.8614 29.1319L76.1866 19.7805L70.2876 20.8345ZM46.9089 10.9553L46.9049 29.6596H52.8974V10.9553H46.9089ZM52.8974 10.9553L52.8978 7.75926H46.9049L46.9089 10.9553H52.8974ZM52.8974 7.73777C52.8691 3.76315 49.6859 0.43348 45.6281 0.460446L45.6677 6.45282C46.2753 6.44878 46.8993 6.97057 46.9053 7.78071L52.8974 7.73777ZM45.6477 0.460406H7.2615V6.4529L45.6477 6.45294V0.460406ZM7.28998 0.460526C5.34958 0.44211 3.49694 1.21594 2.13572 2.58654L6.38764 6.80925C6.62622 6.56903 6.93171 6.45006 7.23306 6.4529L7.28998 0.460526ZM2.13572 2.58654C0.777106 3.95455 0.0172985 5.80427 0.000120013 7.72446L5.99249 7.77804C5.99589 7.39899 6.1465 7.05207 6.38764 6.80925L2.13572 2.58654ZM0.000120013 7.75127L0 46.4026H5.99261V7.75127H0.000120013ZM0.000240025 46.4298C0.0174185 48.3498 0.777106 50.1995 2.13572 51.5674L6.38764 47.3447C6.1465 47.1022 5.99589 46.755 5.99249 46.3759L0.000240025 46.4298ZM2.13572 51.5674C3.49694 52.938 5.34958 53.7119 7.28998 53.6935L7.23306 47.7014C6.93171 47.7042 6.62622 47.5852 6.38764 47.3447L2.13572 51.5674ZM7.2615 53.6935H10.2686V47.701H7.2615V53.6935ZM49.9092 32.6559H74.9158V26.6634H49.9092V32.6559Z" fill="#498EEC"/>
<path d="M19.5691 44.6985C22.1169 44.6917 24.5506 45.721 26.3396 47.5423C28.1268 49.3618 29.1261 51.8216 29.1375 54.3772L29.1336 54.7425C29.0256 58.3904 26.9184 61.7052 23.6326 63.2747L23.3005 63.426C19.8139 64.9303 15.8117 64.1918 13.0671 61.6008L12.8054 61.345C10.0688 58.5589 9.25684 54.3805 10.7136 50.7542L10.8562 50.4163C12.3907 46.9718 15.7715 44.7022 19.5593 44.6985C19.5606 44.6985 19.562 44.6985 19.5632 44.6985C19.5651 44.6985 19.5673 44.6985 19.5691 44.6985ZM60.4304 44.6985C62.9784 44.6915 65.4119 45.721 67.2009 47.5423C68.9885 49.3619 69.9883 51.8217 69.9998 54.3772L69.9959 54.7425C69.8879 58.3903 67.7806 61.7052 64.4949 63.2747L64.1619 63.426C60.6752 64.9303 56.673 64.192 53.9285 61.6008L53.6668 61.345C50.9303 58.5589 50.1178 54.3797 51.575 50.7532C53.0343 47.1203 56.5116 44.7022 60.4216 44.6985C60.4229 44.6985 60.4242 44.6985 60.4255 44.6985C60.4272 44.6985 60.4288 44.6985 60.4304 44.6985ZM19.2302 49.7102C17.6609 49.8316 16.2322 50.7919 15.4988 52.2883L15.3533 52.6175C14.6282 54.4222 15.0439 56.489 16.3718 57.8411L16.6267 58.0813C17.9325 59.2253 19.7438 59.5147 21.3191 58.8352L21.6296 58.6868C23.0477 57.9411 24.0147 56.4659 24.1267 54.7776L24.1375 54.4124V54.4036C24.1329 53.1307 23.6353 51.924 22.7732 51.0462C21.9131 50.1705 20.7623 49.6931 19.5779 49.6975H19.5691L19.2302 49.7102ZM60.0925 49.7102C58.5231 49.8315 57.0945 50.7919 56.3611 52.2883L56.2146 52.6175C55.4895 54.4222 55.9061 56.4889 57.2341 57.8411L57.489 58.0813C58.7948 59.2253 60.6064 59.5148 62.1814 58.8352L62.492 58.6868C64.0112 57.8877 65.0128 56.251 64.9998 54.4124V54.4036C64.9954 53.2101 64.5569 52.0755 63.7918 51.2151L63.6345 51.0462C62.7747 50.1707 61.6247 49.6932 60.4402 49.6975H60.4304L60.0925 49.7102Z" fill="#498EEC"/>
</svg>
