<svg width="30" height="31" viewBox="0 0 30 31" fill="none" xmlns="http://www.w3.org/2000/svg">
<path d="M24.2193 21.927H22.0396C21.2144 21.927 20.9593 21.2709 19.4768 19.7684C18.1855 18.518 17.6143 18.35 17.2972 18.35C16.8521 18.35 16.725 18.477 16.725 19.0912V21.0598C16.725 21.5899 16.556 21.907 15.1585 21.907C12.3397 21.718 9.91697 20.1805 8.51055 17.9399L8.48955 17.9048C6.85706 15.8772 5.6537 13.4335 5.05852 10.7607L5.03651 10.6437C5.03651 10.3266 5.16355 10.0295 5.77773 10.0295H7.95739C8.50755 10.0295 8.71962 10.2836 8.93268 10.8757C10.011 13.9887 11.8115 16.7195 12.5528 16.7195C12.8278 16.7195 12.9549 16.5924 12.9549 15.8942V12.6743C12.8699 11.1918 12.0866 11.0658 12.0866 10.5366C12.0956 10.2535 12.3277 10.0275 12.6118 10.0275C12.6208 10.0275 12.6288 10.0275 12.6378 10.0285H12.6368H16.0668C16.533 10.0285 16.702 10.2826 16.702 10.8327V15.174C16.702 15.6392 16.9141 15.8092 17.0411 15.8092C17.3162 15.8092 17.5503 15.6392 18.0574 15.132C19.1117 13.8446 20.013 12.3722 20.7002 10.7847L20.7462 10.6647C20.8913 10.3016 21.2394 10.0495 21.6465 10.0495C21.6655 10.0495 21.6835 10.0505 21.7025 10.0515H21.6995H23.8792C24.5354 10.0515 24.6844 10.3886 24.5354 10.8557C23.6611 12.7813 22.6788 14.4358 21.5405 15.9683L21.5925 15.8942C21.3604 16.2754 21.2754 16.4444 21.5925 16.8695C21.8245 17.1866 22.5878 17.8428 23.0959 18.436C23.8312 19.1632 24.4473 20.0095 24.9125 20.9438L24.9375 20.9988C25.1495 21.611 24.8314 21.929 24.2173 21.929L24.2193 21.927ZM19.6049 0.522629H10.3951C1.9896 0.522629 0 2.51223 0 10.9177V20.1275C0 28.533 1.9896 30.5226 10.3951 30.5226H19.6049C28.0104 30.5226 30 28.533 30 20.1275V10.9177C30 2.51223 27.9884 0.522629 19.6049 0.522629Z" fill="#416AA1"/>
</svg>
