<svg width="31" height="32" viewBox="0 0 31 32" fill="none" xmlns="http://www.w3.org/2000/svg">
<path d="M7.5039 9.55381C7.65972 8.32145 9.26131 6.64655 10.5324 6.8324L10.5303 6.83037C11.7673 7.06544 12.7465 9.19447 13.2987 10.1518C13.6899 10.8464 13.4359 11.5501 13.0709 11.8471C12.5787 12.2439 11.8089 12.7913 11.9704 13.341C12.2575 14.3182 15.6666 17.7273 17.3434 18.6964C17.978 19.0632 18.4382 18.0957 18.8312 17.6C19.1168 17.2188 19.8211 16.9909 20.5141 17.3673C21.5491 17.97 22.5241 18.6705 23.4257 19.4591C23.876 19.8355 23.9817 20.3917 23.6697 20.9795C23.1201 22.015 21.5307 23.3804 20.3769 23.1029C18.3617 22.6184 10.2121 19.4591 7.59435 10.3064C7.44713 9.87338 7.48419 9.70969 7.5039 9.55381Z" fill="#3AC859"/>
<path fill-rule="evenodd" clip-rule="evenodd" d="M15.6666 30C13.9981 30 13.0749 29.821 11.5757 29.3182L8.70449 30.7538C6.89111 31.6605 4.75754 30.3419 4.75754 28.3144V25.2273C1.82101 22.4891 0.666626 19.3319 0.666626 15C0.666626 6.71573 7.38236 0 15.6666 0C23.9509 0 30.6666 6.71573 30.6666 15C30.6666 23.2842 23.9509 30 15.6666 30ZM7.48481 24.0413L6.61747 23.2325C4.33599 21.1053 3.3939 18.727 3.3939 15C3.3939 8.22196 8.88859 2.72727 15.6666 2.72727C22.4447 2.72727 27.9394 8.22196 27.9394 15C27.9394 21.7781 22.4447 27.2727 15.6666 27.2727C14.3225 27.2727 13.6921 27.1514 12.4429 26.7325L11.3691 26.3723L7.48481 28.3144V24.0413Z" fill="#3AC859"/>
</svg>
